<svg width="418" height="315" viewBox="0 0 418 315" fill="none" xmlns="http://www.w3.org/2000/svg">
<g clip-path="url(#clip0_109_568)">
<path d="M327.074 314.006L344.95 314.007L344.95 307.1L332.59 307.1C331.866 307.1 331.149 307.242 330.48 307.52C329.81 307.797 329.202 308.203 328.69 308.715C328.178 309.227 327.771 309.835 327.494 310.505C327.217 311.174 327.074 311.891 327.074 312.615L327.074 314.006Z" fill="#2F2E41"/>
<path d="M376.335 314.007L393.308 308.397L391.14 301.839L379.405 305.718C378.717 305.946 378.081 306.306 377.532 306.779C376.984 307.253 376.534 307.829 376.208 308.476C375.883 309.123 375.688 309.828 375.635 310.551C375.582 311.273 375.671 311.999 375.899 312.686L376.335 314.007Z" fill="#2F2E41"/>
<path d="M103.42 74.8365H105.15V27.4348C105.15 20.1587 108.041 13.1805 113.186 8.03549C118.331 2.89046 125.309 9.1811e-06 132.585 0H233.012C236.615 -9.66011e-06 240.182 0.709604 243.511 2.08832C246.839 3.46704 249.864 5.48787 252.411 8.03542C254.959 10.583 256.98 13.6074 258.358 16.9359C259.737 20.2644 260.447 23.832 260.447 27.4347V287.484C260.447 291.087 259.737 294.654 258.358 297.983C256.98 301.312 254.959 304.336 252.411 306.884C249.864 309.431 246.839 311.452 243.511 312.831C240.182 314.209 236.615 314.919 233.012 314.919H132.585C125.309 314.919 118.331 312.029 113.186 306.884C108.041 301.739 105.15 294.76 105.15 287.484V108.578H103.42L103.42 74.8365Z" fill="#3F3D56"/>
<path d="M131.478 7.13757H144.587C143.984 8.61557 143.754 10.2191 143.917 11.807C144.08 13.3949 144.631 14.9183 145.521 16.2432C146.411 17.568 147.614 18.6535 149.023 19.4042C150.431 20.1548 152.003 20.5475 153.599 20.5476H211.132C212.729 20.5475 214.3 20.1548 215.709 19.4042C217.118 18.6536 218.32 17.568 219.211 16.2432C220.101 14.9184 220.652 13.3949 220.815 11.807C220.978 10.2191 220.747 8.61557 220.145 7.13757H232.388C237.822 7.13757 243.033 9.29612 246.876 13.1384C250.718 16.9806 252.876 22.1918 252.876 27.6256V287.293C252.876 289.984 252.347 292.648 251.317 295.134C250.287 297.62 248.778 299.878 246.876 301.781C244.973 303.683 242.715 305.192 240.229 306.222C237.743 307.251 235.079 307.781 232.388 307.781H131.478C128.787 307.781 126.123 307.251 123.637 306.222C121.152 305.192 118.893 303.683 116.991 301.781C115.088 299.878 113.579 297.62 112.549 295.134C111.52 292.648 110.99 289.984 110.99 287.293V27.6255C110.99 24.935 111.52 22.2708 112.549 19.7851C113.579 17.2994 115.088 15.0408 116.991 13.1383C118.893 11.2359 121.152 9.72673 123.637 8.69712C126.123 7.6675 128.787 7.13757 131.478 7.13757Z" fill="white"/>
<path d="M161.03 119.735C150.993 119.735 142.856 118.96 142.856 118.004C142.856 117.048 150.993 116.273 161.03 116.273C171.067 116.273 179.204 117.048 179.204 118.004C179.204 118.96 171.067 119.735 161.03 119.735Z" fill="#FFE100"/>
<path d="M0.000243918 43.2142H167.31V98.1389H160.972V112.504L146.607 98.1389H0.000243918V43.2142Z" fill="#99E9A5"/>
<path d="M72.6076 61.8137H148.688V64.1226H72.6076V61.8137Z" fill="white"/>
<path d="M16.0865 69.8008H148.688V72.1096H16.0865V69.8008Z" fill="white"/>
<path d="M16.2164 77.7877H148.688V80.0966H16.2164V77.7877Z" fill="white"/>
<path d="M42.7433 208.874H176.295V252.717H171.237V264.183L159.77 252.717H42.7433V208.874Z" fill="#6C63FF"/>
<path d="M100.701 223.721H161.431V225.564H100.701V223.721Z" fill="white"/>
<path d="M55.584 230.096H161.431V231.939H55.584V230.096Z" fill="white"/>
<path d="M55.6876 236.472H161.431V238.315H55.6876V236.472Z" fill="white"/>
<path d="M171.283 269.956C163.271 269.956 156.776 269.337 156.776 268.574C156.776 267.811 163.271 267.192 171.283 267.192C179.295 267.192 185.79 267.811 185.79 268.574C185.79 269.337 179.295 269.956 171.283 269.956Z" fill="#FFE100"/>
<path d="M211.225 183.777C201.188 183.777 193.051 183.002 193.051 182.046C193.051 181.09 201.188 180.315 211.225 180.315C221.262 180.315 229.399 181.09 229.399 182.046C229.399 183.002 221.262 183.777 211.225 183.777Z" fill="#FFE100"/>
<path d="M322.615 129.335H204.958V167.961H209.414V178.062L219.516 167.961H322.615V129.335Z" fill="#6C63FF"/>
<path d="M256.909 142.118H310.411V143.742H256.909V142.118Z" fill="white"/>
<path d="M217.162 147.735H310.411V149.359H217.162V147.735Z" fill="white"/>
<path d="M217.253 153.352H310.411V154.975H217.253V153.352Z" fill="white"/>
<path d="M379.928 223.552C379.364 224.524 378.437 225.231 377.351 225.519C376.265 225.807 375.11 225.652 374.138 225.088C373.167 224.524 372.459 223.597 372.171 222.511C371.883 221.425 372.038 220.269 372.603 219.298C372.721 219.1 372.854 218.91 373.002 218.732L369.438 193.336L369.332 192.576L368.608 187.393L368.501 186.646L368.896 186.665L375.799 186.981L377.65 187.064L377.882 191.792L379.195 218.37C379.881 219.026 380.326 219.894 380.459 220.834C380.592 221.774 380.405 222.732 379.928 223.552Z" fill="#A0616A"/>
<path d="M369.352 192.807L378.118 192.002C378.573 191.959 378.992 191.738 379.284 191.388C379.577 191.037 379.719 190.585 379.679 190.13L378.053 171.901C377.974 171.015 377.719 170.155 377.301 169.37C376.884 168.585 376.314 167.892 375.624 167.331C374.934 166.771 374.139 166.354 373.285 166.107C372.431 165.859 371.537 165.785 370.654 165.889C369.771 165.994 368.918 166.274 368.146 166.713C367.373 167.153 366.697 167.743 366.156 168.449C365.616 169.155 365.222 169.962 364.999 170.822C364.776 171.682 364.728 172.579 364.858 173.458L367.486 191.338C367.546 191.748 367.752 192.122 368.065 192.393C368.378 192.664 368.778 192.813 369.192 192.814C369.245 192.814 369.299 192.812 369.352 192.807Z" fill="#99E9A5"/>
<path d="M375.996 178.079C376.882 175.568 376.923 172.835 376.113 170.298C375.302 167.761 373.684 165.559 371.505 164.027C368.2 161.766 363.676 160.954 358.805 166.753C349.063 178.351 346.511 191.109 346.511 191.109L366.46 194.357C366.46 194.357 373.245 186.064 375.996 178.079Z" fill="#99E9A5"/>
<path d="M343.732 308.725H338.044L335.338 286.787L343.732 286.787L343.732 308.725Z" fill="#A0616A"/>
<path d="M390.493 303.765L385.093 305.55L375.638 285.569L383.608 282.935L390.493 303.765Z" fill="#A0616A"/>
<path d="M358.008 156.879C352.486 153.86 350.457 146.937 353.475 141.415C356.494 135.893 363.417 133.864 368.939 136.882C374.461 139.901 376.49 146.824 373.472 152.346C370.453 157.868 363.53 159.897 358.008 156.879Z" fill="#A0616A"/>
<path d="M353.497 302.618L358.779 267.756C358.836 267.384 359.019 267.043 359.299 266.791C359.579 266.54 359.938 266.393 360.314 266.377C360.69 266.36 361.06 266.475 361.361 266.701C361.661 266.927 361.874 267.251 361.963 267.617L370.006 300.84C370.133 301.349 370.445 301.792 370.882 302.083C371.319 302.373 371.848 302.49 372.367 302.41L394.554 298.844C394.849 298.797 395.129 298.687 395.378 298.523C395.626 298.358 395.836 298.142 395.994 297.889C396.152 297.636 396.254 297.353 396.293 297.058C396.332 296.762 396.308 296.462 396.221 296.177L367.29 200.794C367.208 200.523 367.198 200.235 367.262 199.958L368.225 195.784C368.331 195.332 368.282 194.857 368.086 194.435C367.891 194.013 367.559 193.67 367.145 193.458C363.206 191.448 353.23 187.269 345.697 191.847C345.453 191.996 345.241 192.193 345.075 192.426C344.91 192.66 344.793 192.925 344.733 193.204L322.132 299.429C322.07 299.718 322.071 300.017 322.133 300.305C322.196 300.594 322.318 300.866 322.494 301.104C322.669 301.341 322.893 301.539 323.151 301.684C323.408 301.828 323.693 301.917 323.987 301.943L351.247 304.384C351.309 304.39 351.372 304.392 351.434 304.392C351.933 304.391 352.415 304.212 352.794 303.887C353.172 303.561 353.421 303.111 353.497 302.618Z" fill="#2F2E41"/>
<path d="M371.03 138.83C370.171 138.313 369.409 137.651 368.777 136.872C368.466 136.479 368.261 136.012 368.182 135.517C368.103 135.021 368.153 134.514 368.327 134.044C368.903 132.774 370.614 132.371 371.939 132.804C373.265 133.237 374.289 134.276 375.258 135.279C376.111 136.162 376.989 137.084 377.394 138.244C377.798 139.403 377.59 140.874 376.584 141.577C375.596 142.268 374.175 141.985 373.225 141.243C372.274 140.502 371.686 139.402 371.125 138.335L371.03 138.83Z" fill="#2F2E41"/>
<path d="M374.889 135.583C374.952 132.373 378.612 130.071 381.772 130.639C384.932 131.208 387.362 133.903 388.578 136.875C391.147 143.155 389.218 150.32 386.743 156.637C384.267 162.954 381.204 169.367 381.565 176.142C381.809 179.804 383.037 183.333 385.121 186.354C387.205 189.376 390.066 191.779 393.402 193.309C389.835 194.926 385.571 193.256 382.574 190.735C375.918 185.138 373.348 175.173 376.468 167.054C378.007 163.05 380.719 159.625 382.837 155.894C384.954 152.163 386.508 147.767 385.414 143.619C384.321 139.471 379.669 136.111 375.692 137.718L374.889 135.583Z" fill="#2F2E41"/>
<path d="M362.791 151.937C363.784 150.258 364.787 148.055 362.971 146.587C362.576 146.283 362.124 146.06 361.642 145.933C361.16 145.805 360.658 145.776 360.164 145.845C358.117 146.092 355.888 146.194 353.906 145.45C353.163 145.194 352.479 144.792 351.895 144.267C351.31 143.741 350.837 143.104 350.504 142.392C349.481 139.969 350.762 137.024 352.9 135.492C354.208 134.589 355.754 134.092 357.343 134.064C358.933 134.036 360.495 134.478 361.834 135.334C364.604 134.111 367.964 134.655 370.481 136.339C372.997 138.023 374.718 140.719 375.654 143.599C376.515 146.077 376.664 148.748 376.082 151.307C375.614 153.087 374.723 154.728 373.486 156.091C372.25 157.454 370.702 158.499 368.976 159.138C368.303 159.403 367.573 159.486 366.858 159.38C366.143 159.274 365.468 158.982 364.902 158.533C364.902 158.533 363.331 157.162 362.84 155.511C362.462 154.243 362.26 152.834 362.791 151.937Z" fill="#2F2E41"/>
<path d="M328.988 162.104C329.044 162.355 329.082 162.609 329.099 162.865L349.028 174.363L353.872 171.574L359.036 178.334L350.94 184.105C350.286 184.571 349.499 184.812 348.696 184.793C347.893 184.773 347.118 184.494 346.487 183.996L325.937 167.784C325.009 168.127 323.999 168.18 323.041 167.935C322.083 167.69 321.222 167.16 320.573 166.414C319.924 165.668 319.517 164.742 319.407 163.759C319.296 162.776 319.488 161.783 319.956 160.912C320.424 160.041 321.146 159.333 322.026 158.882C322.907 158.431 323.903 158.259 324.884 158.388C325.864 158.518 326.782 158.943 327.515 159.607C328.248 160.27 328.762 161.142 328.988 162.104Z" fill="#A0616A"/>
<path d="M349.694 174.907L356.135 183.255C356.319 183.493 356.551 183.688 356.816 183.827C357.082 183.967 357.374 184.048 357.674 184.064C357.974 184.081 358.273 184.032 358.552 183.923C358.832 183.813 359.084 183.644 359.292 183.428L366.584 175.856C367.794 174.912 368.58 173.526 368.77 172.002C368.96 170.479 368.538 168.943 367.596 167.73C366.655 166.517 365.271 165.728 363.749 165.534C362.226 165.34 360.688 165.758 359.473 166.696L350.328 171.81C350.066 171.956 349.839 172.158 349.662 172.4C349.485 172.642 349.362 172.919 349.302 173.213C349.242 173.507 349.246 173.811 349.313 174.103C349.381 174.395 349.511 174.67 349.694 174.907Z" fill="#99E9A5"/>
<path d="M284.174 314.919H417.458C417.602 314.919 417.74 314.862 417.841 314.76C417.943 314.659 418 314.521 418 314.377C418 314.233 417.943 314.096 417.841 313.994C417.74 313.892 417.602 313.835 417.458 313.835H284.174C284.03 313.835 283.892 313.892 283.79 313.994C283.689 314.096 283.632 314.233 283.632 314.377C283.632 314.521 283.689 314.659 283.79 314.76C283.892 314.862 284.03 314.919 284.174 314.919Z" fill="#CCCCCC"/>
</g>
<defs>
<clipPath id="clip0_109_568">
<rect width="418" height="314.919" fill="white" transform="matrix(-1 0 0 1 418 0)"/>
</clipPath>
</defs>
</svg>
