<svg width="300" height="224" viewBox="0 0 300 224" fill="none" xmlns="http://www.w3.org/2000/svg">
<g clip-path="url(#clip0_109_659)">
<path d="M291.551 189.66C290.194 178.749 283.432 167.998 273.026 164.447C277.13 175.678 277.129 187.999 273.023 199.229C271.424 203.554 269.195 208.199 270.699 212.558C271.635 215.271 273.925 217.346 276.484 218.644C279.043 219.941 281.883 220.56 284.688 221.166L285.24 221.622C289.692 211.568 292.908 200.572 291.551 189.66Z" fill="#B26D3C"/>
<path d="M272.922 164.653C278.982 171.443 282.749 179.97 283.687 189.023C283.923 190.969 283.852 192.939 283.475 194.862C283.047 196.723 282.128 198.436 280.815 199.822C279.616 201.14 278.237 202.348 277.379 203.934C276.952 204.752 276.703 205.651 276.648 206.573C276.593 207.494 276.733 208.417 277.059 209.28C277.817 211.452 279.309 213.223 280.829 214.904C282.517 216.77 284.299 218.681 285.017 221.155C285.104 221.455 285.564 221.303 285.477 221.003C284.229 216.699 280.05 214.254 278.058 210.377C277.128 208.568 276.738 206.468 277.609 204.558C278.372 202.888 279.792 201.641 281.018 200.318C282.319 198.984 283.274 197.352 283.799 195.564C284.273 193.667 284.421 191.702 284.235 189.755C283.888 185.365 282.853 181.057 281.167 176.989C279.269 172.335 276.589 168.04 273.243 164.29C273.036 164.058 272.716 164.423 272.922 164.653Z" fill="white"/>
<path d="M283.557 186.091C285.054 185.727 286.373 184.843 287.279 183.596C288.185 182.35 288.618 180.822 288.502 179.285C288.477 178.974 287.993 178.998 288.018 179.309C288.129 180.74 287.725 182.163 286.879 183.322C286.033 184.481 284.801 185.3 283.405 185.63C283.101 185.702 283.255 186.162 283.557 186.091Z" fill="white"/>
<path d="M281.511 199.235C278.806 197.62 276.809 195.045 275.919 192.023C275.831 191.724 275.371 191.876 275.459 192.175C276.391 195.318 278.475 197.993 281.293 199.667C281.561 199.827 281.778 199.393 281.511 199.235Z" fill="white"/>
<path d="M278.82 172.794C278.269 173.055 277.663 173.176 277.055 173.145C276.446 173.114 275.855 172.933 275.335 172.617C275.068 172.454 274.852 172.888 275.117 173.05C275.694 173.396 276.347 173.596 277.019 173.631C277.691 173.667 278.361 173.537 278.971 173.254C279.031 173.232 279.08 173.188 279.109 173.132C279.138 173.075 279.144 173.009 279.126 172.948C279.105 172.887 279.062 172.837 279.004 172.808C278.947 172.779 278.881 172.774 278.82 172.794Z" fill="white"/>
<path d="M241.306 183.936C241.469 184.043 241.633 184.149 241.797 184.259C243.988 185.7 246.059 187.317 247.989 189.094C248.14 189.229 248.292 189.368 248.439 189.507C253.042 193.836 256.802 198.983 259.527 204.685C260.609 206.955 261.517 209.304 262.243 211.712C263.245 215.037 264.067 218.722 266.051 221.442C266.254 221.728 266.476 222.001 266.713 222.26H284.64C284.681 222.24 284.722 222.223 284.763 222.203L285.478 222.236C285.45 222.109 285.417 221.978 285.388 221.851C285.372 221.778 285.352 221.704 285.335 221.63C285.323 221.581 285.311 221.532 285.303 221.487C285.299 221.471 285.294 221.454 285.29 221.442C285.282 221.397 285.27 221.356 285.262 221.315C285.082 220.583 284.896 219.851 284.705 219.119C284.705 219.115 284.705 219.115 284.701 219.111C283.233 213.536 281.286 208.035 278.566 203.004C278.484 202.853 278.403 202.697 278.313 202.546C277.074 200.285 275.653 198.129 274.063 196.1C273.189 194.992 272.259 193.928 271.278 192.914C268.736 190.298 265.799 188.098 262.574 186.394C256.144 183 248.701 181.699 241.829 183.773C241.653 183.826 241.481 183.879 241.306 183.936Z" fill="#B26D3C"/>
<path d="M241.346 184.164C250.273 185.937 258.414 190.477 264.613 197.141C265.973 198.552 267.102 200.168 267.959 201.93C268.738 203.674 269.036 205.595 268.822 207.493C268.658 209.266 268.284 211.061 268.554 212.844C268.706 213.754 269.048 214.622 269.559 215.391C270.07 216.16 270.737 216.812 271.517 217.305C273.43 218.583 275.688 219.098 277.913 219.525C280.384 219.999 282.959 220.452 285.021 221.996C285.271 222.183 285.546 221.784 285.297 221.597C281.709 218.912 276.9 219.476 272.975 217.58C271.144 216.695 269.568 215.253 269.114 213.204C268.717 211.412 269.1 209.56 269.282 207.766C269.518 205.917 269.298 204.039 268.641 202.296C267.877 200.495 266.812 198.838 265.492 197.395C262.571 194.099 259.151 191.283 255.356 189.049C251.038 186.476 246.313 184.66 241.383 183.68C241.078 183.62 241.043 184.104 241.346 184.164Z" fill="white"/>
<path d="M262.743 194.878C263.72 193.686 264.242 192.186 264.214 190.645C264.187 189.104 263.613 187.623 262.595 186.467C262.388 186.233 262.015 186.544 262.223 186.777C263.173 187.853 263.707 189.232 263.73 190.667C263.752 192.102 263.261 193.497 262.345 194.602C262.146 194.842 262.546 195.117 262.743 194.878Z" fill="white"/>
<path d="M269.024 206.604C265.892 206.943 262.747 206.089 260.217 204.213C259.967 204.027 259.691 204.425 259.941 204.611C262.578 206.559 265.852 207.441 269.11 207.081C269.421 207.047 269.332 206.57 269.024 206.604Z" fill="white"/>
<path d="M250.956 187.113C250.674 187.653 250.263 188.114 249.758 188.456C249.254 188.798 248.673 189.008 248.067 189.07C247.756 189.1 247.845 189.577 248.154 189.547C248.823 189.476 249.464 189.242 250.022 188.866C250.58 188.49 251.038 187.983 251.354 187.389C251.389 187.335 251.402 187.271 251.39 187.208C251.379 187.146 251.344 187.09 251.293 187.052C251.24 187.016 251.175 187.002 251.112 187.013C251.049 187.025 250.993 187.06 250.956 187.113Z" fill="white"/>
<path d="M238.693 217.787H233.679L231.293 198.446H238.694L238.693 217.787Z" fill="#9E616A"/>
<path d="M239.972 222.648L223.803 222.648V222.443C223.804 220.774 224.467 219.173 225.647 217.993C226.827 216.813 228.428 216.15 230.097 216.15H230.097L239.972 216.15L239.972 222.648Z" fill="#2F2E41"/>
<path d="M229.949 136.825L235.969 170.95C235.969 170.95 239.18 186.602 239.447 192.622C239.715 198.642 240.785 206.402 240.785 206.402L229.949 208.141L219.247 162.243L229.949 136.825Z" fill="url(#paint0_linear_109_659)"/>
<path d="M229.949 136.825L235.969 170.95C235.969 170.95 239.18 186.602 239.447 192.622C239.715 198.642 240.785 206.402 240.785 206.402L229.949 208.141L219.247 162.243L229.949 136.825Z" fill="url(#paint1_linear_109_659)"/>
<path d="M228.103 85.6964C227.964 85.471 227.876 85.2184 227.844 84.9559C227.813 84.6933 227.838 84.4269 227.918 84.175L230.727 67.6036C230.944 66.2678 231.682 65.0727 232.78 64.2804C233.877 63.4881 235.243 63.1633 236.58 63.3772C237.916 63.591 239.113 64.3262 239.908 65.4213C240.703 66.5164 241.032 67.8822 240.821 69.2191L240.687 86.2568C240.683 86.5213 240.622 86.7818 240.508 87.0207C240.395 87.2595 240.231 87.471 240.028 87.6409C239.825 87.8107 239.588 87.9349 239.333 88.0049C239.078 88.0749 238.811 88.089 238.55 88.0465L229.376 86.5506C229.114 86.5082 228.866 86.4099 228.646 86.2625C228.426 86.1151 228.241 85.922 228.103 85.6964Z" fill="#171717"/>
<path d="M49.5725 0H198.122V48.7664H192.495V61.5204L179.741 48.7664H49.5725V0Z" fill="#CCCCCC"/>
<path d="M194.2 43.9663H53.4941V4.54425H163.558C171.682 4.55341 179.471 7.7847 185.215 13.5292C190.96 19.2737 194.191 27.0623 194.2 35.1863V43.9663Z" fill="white"/>
<path d="M148.549 70.1096H0V118.876H5.62672V131.63L18.3812 118.876H148.549V70.1096Z" fill="#CCCCCC"/>
<path d="M144.628 114.076H28.9263C22.297 114.068 15.9414 111.432 11.2538 106.744C6.56619 102.056 3.92939 95.7009 3.92188 89.0716V74.6539H144.628V114.076Z" fill="white"/>
<path d="M134.48 86.6237H16.5339V88.6736H134.48V86.6237Z" fill="#6C63FF"/>
<path d="M134.267 93.7151H16.5339V95.7651H134.267V93.7151Z" fill="#99E9A5"/>
<path d="M134.152 100.807H16.5339V102.857H134.152V100.807Z" fill="#6C63FF"/>
<g clip-path="url(#clip1_109_659)">
<path d="M98.8419 32.8809C91.1139 32.8809 90.1826 26.1852 90.1932 24.5112V23.9532C90.1826 22.2793 91.1139 15.5836 98.8419 15.5836C106.57 15.5836 107.501 22.2793 107.491 23.9532V24.5112C107.501 26.1852 106.57 32.8809 98.8419 32.8809Z" fill="url(#paint2_linear_109_659)"/>
<path d="M103.531 25.6366C103.574 25.627 103.619 25.628 103.662 25.6396C103.705 25.6512 103.744 25.673 103.777 25.7032C103.81 25.7334 103.834 25.771 103.849 25.8128C103.864 25.8547 103.869 25.8995 103.863 25.9435C103.843 26.1753 103.802 26.405 103.743 26.6298C102.246 27.4653 100.555 27.8895 98.842 27.8591C97.1284 27.8892 95.4375 27.4648 93.9413 26.629C93.8816 26.4041 93.8415 26.1745 93.8213 25.9427C93.8151 25.8987 93.8197 25.8538 93.8346 25.812C93.8495 25.7701 93.8743 25.7325 93.907 25.7024C93.9396 25.6722 93.979 25.6504 94.0219 25.6388C94.0648 25.6272 94.1099 25.6262 94.1533 25.6358C95.6798 26.0639 97.2566 26.2862 98.842 26.2967C100.427 26.2865 102.004 26.0645 103.531 25.6366Z" fill="url(#paint3_linear_109_659)"/>
<path d="M103.864 25.6272H103.861C103.862 25.5861 103.854 25.5453 103.837 25.5079C103.819 25.4706 103.794 25.4377 103.762 25.4117C103.73 25.3857 103.692 25.3673 103.652 25.358C103.612 25.3486 103.571 25.3485 103.531 25.3577C102.004 25.7855 100.427 26.0075 98.8419 26.0178C97.2565 26.0073 95.6797 25.785 94.1532 25.3568C94.113 25.3477 94.0713 25.3478 94.0311 25.3572C93.991 25.3666 93.9535 25.385 93.9216 25.4111C93.8897 25.4372 93.8642 25.4702 93.8469 25.5076C93.8297 25.5451 93.8213 25.586 93.8223 25.6272H93.8201V25.9062H93.8223C93.8215 25.9185 93.8215 25.9309 93.8223 25.9433C93.8425 26.1751 93.8826 26.4047 93.9423 26.6296C93.9786 26.7773 94.0242 26.9226 94.079 27.0645C94.3716 27.8069 94.8628 28.4544 95.4987 28.9363C96.4496 29.6921 97.6284 30.1036 98.843 30.1036C100.058 30.1036 101.236 29.6921 102.187 28.9363C102.823 28.4544 103.314 27.8069 103.607 27.0645C103.662 26.9226 103.707 26.7773 103.744 26.6296C103.803 26.4047 103.844 26.1751 103.864 25.9433C103.865 25.9309 103.865 25.9185 103.864 25.9062V25.6272Z" fill="#ED8D06"/>
<path d="M103.861 25.9062C103.862 25.865 103.854 25.8243 103.837 25.7869C103.819 25.7496 103.794 25.7166 103.762 25.6907C103.73 25.6647 103.692 25.6463 103.652 25.637C103.612 25.6276 103.571 25.6275 103.531 25.6367C102.004 26.0645 100.427 26.2865 98.8419 26.2968C97.2565 26.2863 95.6797 26.064 94.1532 25.6358C94.113 25.6267 94.0713 25.6268 94.0311 25.6362C93.991 25.6456 93.9535 25.664 93.9216 25.6901C93.8897 25.7162 93.8642 25.7492 93.8469 25.7866C93.8297 25.8241 93.8213 25.865 93.8223 25.9062H93.8201V26.1852H93.8223C93.8215 26.1975 93.8215 26.2099 93.8223 26.2223C93.8425 26.4541 93.8826 26.6837 93.9423 26.9086C93.9786 27.0563 94.0242 27.2016 94.079 27.3435C94.3716 28.0859 94.8628 28.7334 95.4987 29.2153C96.4496 29.9711 97.6284 30.3826 98.843 30.3826C100.058 30.3826 101.236 29.9711 102.187 29.2153C102.823 28.7334 103.314 28.0859 103.607 27.3435C103.662 27.2016 103.707 27.0563 103.744 26.9086C103.803 26.6837 103.844 26.4541 103.864 26.2223C103.865 26.2099 103.865 26.1975 103.864 26.1852V25.9062H103.861Z" fill="#F9BF06"/>
<path d="M100.772 29.7451C99.5266 30.2063 98.1572 30.2063 96.9119 29.7451C97.0037 29.5024 97.4191 28.6961 98.8419 28.6961C100.265 28.6961 100.68 29.5024 100.772 29.7451Z" fill="#8F030E"/>
<path d="M103.606 27.0645C103.313 27.8069 102.822 28.4544 102.186 28.9363C101.759 29.277 101.282 29.5499 100.772 29.7453C100.68 29.5023 100.265 28.6961 98.8419 28.6961C97.419 28.6961 97.0036 29.5021 96.9118 29.7448C96.4017 29.5493 95.9247 29.2764 95.4976 28.9357C94.8617 28.4538 94.3705 27.8063 94.0779 27.064C94.0231 26.922 93.9774 26.7768 93.9412 26.629C95.4374 27.4648 97.1283 27.8892 98.8419 27.8591C100.555 27.8892 102.246 27.4648 103.743 26.629C103.706 26.777 103.661 26.9224 103.606 27.0645Z" fill="url(#paint4_linear_109_659)"/>
<path d="M103.531 25.6366C103.574 25.627 103.619 25.628 103.662 25.6396C103.705 25.6512 103.744 25.673 103.777 25.7032C103.81 25.7334 103.834 25.771 103.849 25.8128C103.864 25.8547 103.869 25.8995 103.863 25.9435C103.843 26.1753 103.802 26.405 103.743 26.6298C102.246 27.4653 100.555 27.8895 98.842 27.8591C97.1284 27.8892 95.4375 27.4648 93.9413 26.629C93.8816 26.4041 93.8415 26.1745 93.8213 25.9427C93.8151 25.8987 93.8197 25.8538 93.8346 25.812C93.8495 25.7701 93.8743 25.7325 93.907 25.7024C93.9396 25.6722 93.979 25.6504 94.0219 25.6388C94.0648 25.6272 94.1099 25.6262 94.1533 25.6358C95.6798 26.0639 97.2566 26.2862 98.842 26.2967C100.427 26.2865 102.004 26.0645 103.531 25.6366Z" fill="url(#paint5_linear_109_659)"/>
<path d="M103.531 25.6366C103.574 25.627 103.619 25.628 103.662 25.6396C103.705 25.6512 103.744 25.673 103.777 25.7032C103.81 25.7334 103.834 25.771 103.849 25.8128C103.864 25.8547 103.869 25.8995 103.863 25.9435C103.843 26.1753 103.802 26.405 103.743 26.6298C102.246 27.4653 100.555 27.8895 98.842 27.8591C97.1284 27.8892 95.4375 27.4648 93.9413 26.629C93.8816 26.4041 93.8415 26.1745 93.8213 25.9427C93.8151 25.8987 93.8197 25.8538 93.8346 25.812C93.8495 25.7701 93.8743 25.7325 93.907 25.7024C93.9396 25.6722 93.979 25.6504 94.0219 25.6388C94.0648 25.6272 94.1099 25.6262 94.1533 25.6358C95.6798 26.0639 97.2566 26.2862 98.842 26.2967C100.427 26.2865 102.004 26.0645 103.531 25.6366Z" fill="url(#paint6_linear_109_659)"/>
<path d="M106.226 18.8893C104.862 18.5327 104.143 19.2104 104.143 19.2104C104.143 19.2104 103.771 18.2476 102.406 17.8911C102.193 17.8189 101.968 17.7923 101.744 17.8132C101.52 17.834 101.303 17.9018 101.108 18.012C100.912 18.1223 100.741 18.2726 100.607 18.4531C100.474 18.6336 100.379 18.8403 100.331 19.0597C100.22 19.4574 100.207 19.876 100.294 20.2795C100.714 21.886 101.562 23.3485 102.748 24.5112C104.322 24.0768 105.738 23.2013 106.831 21.988C107.112 21.6828 107.316 21.3144 107.424 20.9139C107.57 20.3822 107.59 19.2458 106.226 18.8893Z" fill="#EC3A4A"/>
<path d="M106.226 18.8893C104.862 18.5328 104.143 19.2104 104.143 19.2104C104.143 19.2104 103.771 18.2476 102.406 17.8911C102.193 17.8189 101.968 17.7924 101.744 17.8132C101.52 17.8341 101.303 17.9019 101.108 18.0122C100.912 18.1225 100.741 18.2728 100.607 18.4533C100.474 18.6339 100.379 18.8406 100.331 19.0601C100.22 19.4576 100.207 19.8761 100.294 20.2795C100.714 21.886 101.562 23.3485 102.748 24.5112C104.322 24.0769 105.738 23.2014 106.831 21.9881C107.112 21.6829 107.316 21.3144 107.424 20.914C107.57 20.3822 107.59 19.2459 106.226 18.8893Z" fill="url(#paint7_linear_109_659)"/>
<path d="M102.183 18.3891C103.603 18.7607 103.999 19.7299 103.999 19.7299C103.999 19.7299 104.739 19.0578 106.159 19.4294C107.062 19.6657 107.387 20.212 107.466 20.7153C107.557 20.1383 107.438 19.2062 106.226 18.8893C104.862 18.5328 104.143 19.2104 104.143 19.2104C104.143 19.2104 103.771 18.2476 102.406 17.8911C101.208 17.5778 100.627 18.3062 100.404 18.8477C100.732 18.4591 101.291 18.1558 102.183 18.3891Z" fill="url(#paint8_linear_109_659)"/>
<path d="M105.612 20.9145C105.603 20.9827 105.608 21.0522 105.629 21.1179C105.65 21.1836 105.685 21.2439 105.732 21.2942C105.779 21.3445 105.837 21.3837 105.901 21.4089C105.965 21.434 106.034 21.4445 106.103 21.4395C106.205 21.4285 106.305 21.4046 106.401 21.3684C106.555 21.3143 106.689 21.2142 106.784 21.0815C106.879 20.9488 106.931 20.7901 106.933 20.6268C106.917 20.4572 106.848 20.2969 106.735 20.1693C106.534 19.9291 105.824 19.5536 105.581 19.9246C105.47 20.0962 105.614 20.4025 105.624 20.592C105.629 20.6996 105.625 20.8075 105.612 20.9145Z" fill="url(#paint9_linear_109_659)"/>
<path d="M103.057 19.9746C103.042 20.1743 103.14 20.3462 103.252 20.3244C103.294 20.3165 103.335 20.3004 103.371 20.277C103.444 20.2179 103.501 20.1421 103.539 20.056C103.576 19.9699 103.592 19.8761 103.585 19.7826C103.58 19.6765 103.553 19.5725 103.506 19.4777C103.425 19.3175 103.141 19.0673 103.044 19.3145C103.025 19.4632 103.031 19.614 103.061 19.7609C103.063 19.8321 103.062 19.9035 103.057 19.9746Z" fill="url(#paint10_linear_109_659)"/>
<path d="M91.4579 18.8893C92.8222 18.5328 93.5412 19.2104 93.5412 19.2104C93.5412 19.2104 93.9133 18.2476 95.2776 17.8911C95.4904 17.8189 95.7161 17.7924 95.9399 17.8132C96.1637 17.8341 96.3806 17.9019 96.5764 18.0122C96.7722 18.1225 96.9426 18.2728 97.0765 18.4533C97.2104 18.6339 97.3047 18.8406 97.3533 19.0601C97.4642 19.4576 97.4767 19.8761 97.3898 20.2795C96.9696 21.886 96.1216 23.3485 94.9361 24.5112C93.3623 24.0769 91.9456 23.2014 90.8531 21.9881C90.5719 21.6829 90.3684 21.3144 90.2597 20.914C90.1135 20.3822 90.0937 19.2459 91.4579 18.8893Z" fill="url(#paint11_linear_109_659)"/>
<path d="M95.5014 18.3891C94.0813 18.7607 93.6846 19.7299 93.6846 19.7299C93.6846 19.7299 92.945 19.0578 91.5249 19.4294C90.6218 19.6657 90.2974 20.212 90.2179 20.7153C90.1266 20.1383 90.2458 19.2062 91.458 18.8893C92.8222 18.5328 93.5412 19.2104 93.5412 19.2104C93.5412 19.2104 93.9134 18.2476 95.2776 17.8911C96.4773 17.5778 97.0579 18.3062 97.2805 18.8488C96.9516 18.4591 96.3927 18.1558 95.5014 18.3891Z" fill="url(#paint12_linear_109_659)"/>
<path d="M95.7885 19.9079C95.8184 19.97 95.8617 20.0246 95.9154 20.0677C95.9691 20.1109 96.0318 20.1415 96.0988 20.1573C96.1659 20.1731 96.2356 20.1737 96.303 20.1591C96.3703 20.1445 96.4335 20.115 96.4879 20.0728C96.5666 20.0069 96.6367 19.9314 96.6963 19.8479C96.7943 19.7175 96.8498 19.5601 96.8552 19.3971C96.8607 19.2341 96.8158 19.0734 96.7267 18.9367C96.6196 18.8043 96.473 18.7094 96.3083 18.6658C96.0075 18.5774 95.2085 18.6588 95.2127 19.1022C95.2143 19.3069 95.5048 19.4819 95.618 19.6339C95.6825 19.7202 95.7395 19.8119 95.7885 19.9079Z" fill="url(#paint13_linear_109_659)"/>
<path d="M93.1408 20.5423C93.2398 20.7164 93.417 20.8048 93.4982 20.7248C93.5291 20.6946 93.5538 20.6586 93.571 20.619C93.5987 20.5294 93.6043 20.4343 93.5873 20.342C93.5704 20.2498 93.5314 20.1629 93.4736 20.089C93.411 20.0031 93.3308 19.9315 93.2384 19.8789C93.0828 19.7904 92.7084 19.7394 92.7642 19.9994C92.7904 20.1194 92.9519 20.2572 93.0253 20.3601C93.0669 20.4196 93.1054 20.4804 93.1408 20.5423Z" fill="url(#paint14_linear_109_659)"/>
<path d="M100.294 20.2795C100.207 19.8761 100.22 19.4575 100.331 19.06C100.399 18.8196 100.512 18.5946 100.665 18.3972C100.368 18.6395 100.153 18.9688 100.052 19.339C99.9407 19.7365 99.9281 20.1551 100.015 20.5585C100.435 22.165 101.283 23.6274 102.469 24.7902C103.966 24.3786 105.323 23.5649 106.391 22.4372C105.369 23.4228 104.117 24.136 102.748 24.5112C101.562 23.3484 100.714 21.886 100.294 20.2795ZM97.3911 20.2795C96.9704 21.8861 96.122 23.3486 94.936 24.5112C93.5671 24.136 92.3144 23.4228 91.293 22.4372C92.361 23.5649 93.7174 24.3786 95.215 24.7902C96.401 23.6276 97.2494 22.1651 97.6701 20.5585C97.757 20.1551 97.7445 19.7365 97.6336 19.339C97.532 18.9688 97.3175 18.6395 97.0198 18.3972C97.1729 18.5946 97.2866 18.8196 97.3546 19.06C97.4655 19.4575 97.478 19.8761 97.3911 20.2795Z" fill="#ED8D06"/>
</g>
<path d="M124.778 20.1454C124.547 19.9158 124.235 19.7869 123.91 19.7872C123.585 19.7874 123.273 19.9167 123.043 20.1467C122.813 20.3766 122.684 20.6884 122.683 21.0136C122.683 21.3388 122.812 21.6509 123.041 21.8812L124.778 23.6174L126.514 21.8814C126.628 21.7674 126.719 21.6321 126.781 21.4831C126.842 21.3341 126.874 21.1743 126.875 21.013C126.875 20.8516 126.843 20.6918 126.781 20.5426C126.72 20.3935 126.629 20.258 126.515 20.1439C126.401 20.0298 126.266 19.9393 126.116 19.8776C125.967 19.8159 125.807 19.7842 125.646 19.7843C125.485 19.7844 125.325 19.8164 125.176 19.8783C125.027 19.9402 124.891 20.0311 124.778 20.1454Z" fill="#6C63FF"/>
<path d="M117.636 20.1454C117.406 19.9154 117.093 19.7862 116.768 19.7863C116.443 19.7864 116.131 19.9157 115.9 20.1458C115.67 20.3759 115.541 20.6879 115.541 21.0134C115.541 21.3388 115.67 21.651 115.9 21.8812L117.636 23.6174L119.372 21.8814C119.486 21.7674 119.577 21.6321 119.639 21.4831C119.701 21.3341 119.733 21.1743 119.733 21.013C119.733 20.8516 119.701 20.6918 119.64 20.5426C119.578 20.3935 119.488 20.258 119.373 20.1439C119.259 20.0298 119.124 19.9393 118.975 19.8776C118.826 19.8159 118.666 19.7842 118.504 19.7843C118.343 19.7844 118.183 19.8164 118.034 19.8783C117.885 19.9402 117.75 20.0311 117.636 20.1454Z" fill="#6C63FF"/>
<g clip-path="url(#clip2_109_659)">
<path d="M127.61 18.5199C127.495 18.5199 127.381 18.5238 127.268 18.5314L123.715 35.0438C123.92 34.9249 132.638 29.8058 132.639 23.5503C132.639 20.7725 130.388 18.5199 127.61 18.5199Z" fill="#E0230D"/>
<path d="M127.269 18.5314C129.466 18.7067 131.202 20.8871 131.202 23.5503C131.201 29.7993 123.901 34.9145 123.715 35.0438C123.713 35.0453 123.712 35.046 123.712 35.046C123.712 35.046 114.784 29.8798 114.784 23.5496C114.784 20.7718 117.036 18.5199 119.814 18.5199C121.386 18.5199 122.79 19.2413 123.712 20.3712C124.567 19.3236 125.835 18.6273 127.269 18.5314Z" fill="#FF5440"/>
</g>
<path d="M144.118 32.881C136.39 32.881 135.459 26.1852 135.469 24.5113V23.9533C135.459 22.2794 136.39 15.5836 144.118 15.5836C151.846 15.5836 152.777 22.2794 152.767 23.9533V24.5113C152.777 26.1852 151.846 32.881 144.118 32.881Z" fill="url(#paint15_linear_109_659)"/>
<path d="M148.024 21.4424C148.024 20.6721 147.649 20.0474 147.187 20.0474C146.725 20.0474 146.35 20.6721 146.35 21.4424C146.35 21.4901 146.356 21.5353 146.358 21.5819C146.356 21.6285 146.35 21.6737 146.35 21.7214C146.35 22.4917 146.725 23.1163 147.187 23.1163C147.649 23.1163 148.024 22.4917 148.024 21.7214C148.024 21.6737 148.018 21.6285 148.015 21.5819C148.018 21.5353 148.024 21.4901 148.024 21.4424ZM141.886 21.4424C141.886 20.6721 141.511 20.0474 141.049 20.0474C140.587 20.0474 140.212 20.6721 140.212 21.4424C140.212 21.4901 140.218 21.5353 140.221 21.5819C140.218 21.6285 140.212 21.6737 140.212 21.7214C140.212 22.4917 140.587 23.1163 141.049 23.1163C141.511 23.1163 141.886 22.4917 141.886 21.7214C141.886 21.6737 141.881 21.6285 141.878 21.5819C141.881 21.5353 141.886 21.4901 141.886 21.4424Z" fill="#EDA406"/>
<path d="M148.024 21.7214C148.024 20.9511 147.649 20.3264 147.187 20.3264C146.725 20.3264 146.35 20.9511 146.35 21.7214C146.35 21.7691 146.356 21.8143 146.358 21.8609C146.356 21.9074 146.35 21.9526 146.35 22.0004C146.35 22.7706 146.725 23.3953 147.187 23.3953C147.649 23.3953 148.024 22.7706 148.024 22.0004C148.024 21.9526 148.018 21.9074 148.015 21.8609C148.018 21.8143 148.024 21.7691 148.024 21.7214ZM141.886 21.7214C141.886 20.9511 141.511 20.3264 141.049 20.3264C140.587 20.3264 140.212 20.9511 140.212 21.7214C140.212 21.7691 140.218 21.8143 140.221 21.8609C140.218 21.9074 140.212 21.9526 140.212 22.0004C140.212 22.7706 140.587 23.3953 141.049 23.3953C141.511 23.3953 141.886 22.7706 141.886 22.0004C141.886 21.9526 141.881 21.9074 141.878 21.8609C141.881 21.8143 141.886 21.7691 141.886 21.7214Z" fill="#FFD000"/>
<path d="M147.187 23.1163C147.649 23.1163 148.024 22.4918 148.024 21.7214C148.024 20.951 147.649 20.3264 147.187 20.3264C146.725 20.3264 146.35 20.951 146.35 21.7214C146.35 22.4918 146.725 23.1163 147.187 23.1163Z" fill="url(#paint16_linear_109_659)"/>
<path d="M141.049 23.1163C141.511 23.1163 141.886 22.4918 141.886 21.7214C141.886 20.951 141.511 20.3264 141.049 20.3264C140.587 20.3264 140.212 20.951 140.212 21.7214C140.212 22.4918 140.587 23.1163 141.049 23.1163Z" fill="url(#paint17_linear_109_659)"/>
<path d="M147.187 21.1634C147.592 21.1634 147.929 21.3637 148.007 22.0004C148.018 21.9078 148.024 21.8146 148.024 21.7214C148.024 20.9511 147.649 20.3264 147.187 20.3264C146.725 20.3264 146.35 20.9511 146.35 21.7214C146.35 21.8146 146.356 21.9078 146.367 22.0004C146.445 21.3637 146.782 21.1634 147.187 21.1634ZM141.049 21.1634C141.454 21.1634 141.792 21.3637 141.869 22.0004C141.881 21.9078 141.886 21.8146 141.886 21.7214C141.886 20.9511 141.511 20.3264 141.049 20.3264C140.587 20.3264 140.212 20.9511 140.212 21.7214C140.212 21.8146 140.218 21.9078 140.229 22.0004C140.307 21.3637 140.644 21.1634 141.049 21.1634Z" fill="black"/>
<path d="M145.792 27.8592C145.792 26.6266 145.043 25.6273 144.118 25.6273C143.193 25.6273 142.444 26.6266 142.444 27.8592C142.444 27.9063 142.447 27.9524 142.449 27.9987C142.447 28.045 142.444 28.091 142.444 28.1382C142.444 29.3707 143.193 30.3701 144.118 30.3701C145.043 30.3701 145.792 29.3707 145.792 28.1382C145.792 28.091 145.789 28.045 145.787 27.9987C145.789 27.9524 145.792 27.9063 145.792 27.8592Z" fill="#FFD000"/>
<path d="M145.792 27.5802C145.792 26.3476 145.043 25.3483 144.118 25.3483C143.193 25.3483 142.444 26.3476 142.444 27.5802C142.444 27.6273 142.447 27.6734 142.449 27.7197C142.447 27.766 142.444 27.812 142.444 27.8592C142.444 29.0917 143.193 30.0911 144.118 30.0911C145.043 30.0911 145.792 29.0917 145.792 27.8592C145.792 27.812 145.789 27.766 145.787 27.7197C145.789 27.6734 145.792 27.6273 145.792 27.5802Z" fill="#E38706"/>
<path d="M144.118 30.0911C145.043 30.0911 145.792 29.0918 145.792 27.8592C145.792 26.6265 145.043 25.6273 144.118 25.6273C143.194 25.6273 142.444 26.6265 142.444 27.8592C142.444 29.0918 143.194 30.0911 144.118 30.0911Z" fill="url(#paint18_linear_109_659)"/>
<path d="M200.91 217.623L196.081 216.273L198.987 197.004L206.115 198.995L200.91 217.623Z" fill="#9E616A"/>
<path d="M200.834 222.648L185.262 218.297L185.317 218.1C185.766 216.493 186.836 215.129 188.29 214.31C189.744 213.491 191.464 213.283 193.071 213.732L193.072 213.733L202.583 216.39L200.834 222.648Z" fill="#2F2E41"/>
<path d="M226.83 55.7697C232.889 55.7697 237.8 50.8583 237.8 44.7998C237.8 38.7412 232.889 33.8298 226.83 33.8298C220.772 33.8298 215.86 38.7412 215.86 44.7998C215.86 50.8583 220.772 55.7697 226.83 55.7697Z" fill="#D9B1B7"/>
<path d="M231.783 99.7601L232.652 105.713C232.652 105.713 243.622 127.519 231.716 138.222C231.716 138.222 213.923 191.879 208.839 199.103L204.589 207.996L196.409 206.769L201.481 176.226L210.043 132.603L211.314 98.5561C211.314 98.5561 230.043 97.2183 231.783 99.7601Z" fill="url(#paint19_linear_109_659)"/>
<path d="M231.783 99.7601L232.652 105.713C232.652 105.713 243.622 127.519 231.716 138.222C231.716 138.222 213.923 191.879 208.839 199.103L204.589 207.996L196.409 206.769L201.481 176.226L210.043 132.603L211.314 98.5561C211.314 98.5561 230.043 97.2183 231.783 99.7601Z" fill="url(#paint20_linear_109_659)"/>
<path d="M238.777 70.1095L237.997 89.9736L233.882 99.0759L232.357 102.451L210.283 102.184L212.558 86.799C209.347 78.5046 216.972 75.1601 216.972 75.1601L223.394 68.3173L222.825 59.4753L232.491 57.6349C237.521 56.6772 235.095 63.9743 235.095 63.9743C241.784 63.3055 238.777 70.1095 238.777 70.1095Z" fill="#171717"/>
<path d="M194.542 88.9238C194.619 88.8021 194.419 88.5366 194.094 88.331C193.769 88.1254 193.444 88.0574 193.366 88.1792C193.289 88.3009 193.49 88.5664 193.815 88.772C194.139 88.9776 194.465 89.0456 194.542 88.9238Z" fill="#3F3D56"/>
<path d="M193.402 86.658C193.488 86.5228 193.599 86.4059 193.73 86.3138C193.861 86.2217 194.008 86.1563 194.164 86.1212C194.32 86.0862 194.482 86.0822 194.639 86.1096C194.797 86.1369 194.948 86.195 195.083 86.2806L210.517 96.0541C210.652 96.1397 210.769 96.251 210.861 96.3818C210.953 96.5125 211.018 96.6601 211.053 96.8162C211.089 96.9723 211.093 97.1337 211.065 97.2913C211.038 97.4488 210.98 97.5995 210.894 97.7346L193.402 86.658Z" fill="#6C63FF"/>
<path d="M191.943 87.1748L192.429 86.408C192.547 86.2216 192.734 86.0896 192.949 86.0413C193.165 85.9929 193.391 86.0321 193.577 86.1502L211.15 97.2782C211.371 97.418 211.527 97.6399 211.584 97.8949C211.642 98.15 211.595 98.4174 211.455 98.6382L211.052 99.2754L191.943 87.1748Z" fill="#3F3D56"/>
<path d="M194.559 87.5961L194.373 87.89L195.549 88.6347L195.735 88.3407L194.559 87.5961Z" fill="#D0CDE1"/>
<path d="M196.176 88.62L195.99 88.914L197.166 89.6586L197.352 89.3646L196.176 88.62Z" fill="#D0CDE1"/>
<path d="M208.462 91.0725C208.65 91.1973 208.829 91.3369 208.996 91.4898L228.7 86.6738L230.088 81.9456L237.497 83.1072L235.854 91.7165C235.721 92.412 235.366 93.0456 234.843 93.5224C234.319 93.9991 233.655 94.2931 232.95 94.3603L209.978 96.55C209.596 97.3338 208.984 97.9828 208.225 98.4107C207.465 98.8385 206.593 99.025 205.725 98.9452C204.857 98.8654 204.033 98.5232 203.364 97.964C202.695 97.4049 202.213 96.6554 201.98 95.8151C201.747 94.9748 201.776 94.0837 202.062 93.2601C202.349 92.4366 202.879 91.7197 203.583 91.2049C204.286 90.6901 205.13 90.4016 206.001 90.378C206.873 90.3543 207.731 90.5966 208.462 91.0725Z" fill="#D9B1B7"/>
<path d="M232.028 31.2538C229.932 31.251 227.874 31.8164 226.073 32.8898H225.279C222.35 32.8898 219.542 34.0533 217.471 36.1243C215.4 38.1953 214.236 41.0042 214.236 43.933H220.371V57.0212H243.685V42.9105C243.685 39.8189 242.457 36.854 240.27 34.6679C238.084 32.4819 235.119 31.2538 232.028 31.2538Z" fill="#2F2E41"/>
<path d="M299.513 223.192H129.655C129.591 223.192 129.527 223.179 129.468 223.155C129.409 223.131 129.355 223.095 129.309 223.05C129.264 223.004 129.228 222.951 129.203 222.891C129.179 222.832 129.166 222.769 129.166 222.705C129.166 222.641 129.179 222.577 129.203 222.518C129.228 222.459 129.264 222.405 129.309 222.36C129.355 222.315 129.409 222.279 129.468 222.254C129.527 222.23 129.591 222.217 129.655 222.218H299.513C299.577 222.217 299.641 222.23 299.7 222.254C299.759 222.279 299.813 222.315 299.858 222.36C299.904 222.405 299.94 222.459 299.964 222.518C299.989 222.577 300.001 222.641 300.001 222.705C300.001 222.769 299.989 222.832 299.964 222.891C299.94 222.951 299.904 223.004 299.858 223.05C299.813 223.095 299.759 223.131 299.7 223.155C299.641 223.179 299.577 223.192 299.513 223.192Z" fill="#CACACA"/>
</g>
<defs>
<linearGradient id="paint0_linear_109_659" x1="240.785" y1="136.825" x2="204.84" y2="148.279" gradientUnits="userSpaceOnUse">
<stop stop-color="#4D6BDF"/>
<stop offset="1" stop-color="#99E9A5"/>
</linearGradient>
<linearGradient id="paint1_linear_109_659" x1="229.505" y1="136.825" x2="213.357" y2="174.351" gradientUnits="userSpaceOnUse">
<stop stop-color="#4D6BDF"/>
<stop offset="0.092449" stop-color="#4D6BDF" stop-opacity="0.427983"/>
<stop offset="1" stop-color="#4D6BDF" stop-opacity="0"/>
</linearGradient>
<linearGradient id="paint2_linear_109_659" x1="98.8419" y1="15.6684" x2="98.8419" y2="32.9657" gradientUnits="userSpaceOnUse">
<stop stop-color="#FFE100"/>
<stop offset="1" stop-color="#F98900"/>
</linearGradient>
<linearGradient id="paint3_linear_109_659" x1="93.8202" y1="26.7434" x2="103.864" y2="26.7434" gradientUnits="userSpaceOnUse">
<stop stop-color="#B8B4B2"/>
<stop offset="0.143" stop-color="#D0CCC9"/>
<stop offset="0.374" stop-color="#F2EDEA"/>
<stop offset="0.5" stop-color="#FFFAF6"/>
<stop offset="0.638" stop-color="#F9F5F1"/>
<stop offset="0.825" stop-color="#E8E5E3"/>
<stop offset="1" stop-color="#D1D1D1"/>
</linearGradient>
<linearGradient id="paint4_linear_109_659" x1="98.8419" y1="30.1677" x2="98.8419" y2="25.6386" gradientUnits="userSpaceOnUse">
<stop stop-color="#69101B"/>
<stop offset="0.427" stop-color="#400A10"/>
</linearGradient>
<linearGradient id="paint5_linear_109_659" x1="93.8202" y1="26.7434" x2="103.864" y2="26.7434" gradientUnits="userSpaceOnUse">
<stop stop-color="#B8B4B2"/>
<stop offset="0.143" stop-color="#D0CCC9"/>
<stop offset="0.374" stop-color="#F2EDEA"/>
<stop offset="0.5" stop-color="#FFFAF6"/>
<stop offset="0.638" stop-color="#F9F5F1"/>
<stop offset="0.825" stop-color="#E8E5E3"/>
<stop offset="1" stop-color="#D1D1D1"/>
</linearGradient>
<linearGradient id="paint6_linear_109_659" x1="98.842" y1="25.9516" x2="98.842" y2="27.827" gradientUnits="userSpaceOnUse">
<stop stop-color="#ABABAB" stop-opacity="0.5"/>
<stop offset="0.541" stop-color="#C1C1C1" stop-opacity="0.216"/>
<stop offset="1" stop-color="#D1D1D1" stop-opacity="0"/>
</linearGradient>
<linearGradient id="paint7_linear_109_659" x1="104.594" y1="17.8744" x2="102.382" y2="24.4027" gradientUnits="userSpaceOnUse">
<stop stop-color="#FF5F6F"/>
<stop offset="0.346" stop-color="#FF2D44"/>
<stop offset="0.722" stop-color="#D41E32"/>
<stop offset="0.853" stop-color="#D61F33"/>
<stop offset="0.918" stop-color="#DE2337"/>
<stop offset="0.968" stop-color="#EB293E"/>
<stop offset="1" stop-color="#F82F44"/>
</linearGradient>
<linearGradient id="paint8_linear_109_659" x1="104.33" y1="17.7876" x2="103.843" y2="20.2435" gradientUnits="userSpaceOnUse">
<stop stop-color="#FF8A95"/>
<stop offset="0.66" stop-color="#FF495D"/>
<stop offset="1" stop-color="#FF2D44"/>
</linearGradient>
<linearGradient id="paint9_linear_109_659" x1="106.384" y1="19.9721" x2="105.88" y2="21.41" gradientUnits="userSpaceOnUse">
<stop stop-color="#FF5F5F"/>
<stop offset="0.283" stop-color="#FF565A"/>
<stop offset="0.746" stop-color="#FF3D4D"/>
<stop offset="1" stop-color="#FF2D44"/>
</linearGradient>
<linearGradient id="paint10_linear_109_659" x1="106.384" y1="19.9721" x2="105.88" y2="21.41" gradientUnits="userSpaceOnUse">
<stop stop-color="#FF5F5F"/>
<stop offset="0.283" stop-color="#FF565A"/>
<stop offset="0.746" stop-color="#FF3D4D"/>
<stop offset="1" stop-color="#FF2D44"/>
</linearGradient>
<linearGradient id="paint11_linear_109_659" x1="104.594" y1="17.8744" x2="102.382" y2="24.4027" gradientUnits="userSpaceOnUse">
<stop stop-color="#FF5F6F"/>
<stop offset="0.346" stop-color="#FF2D44"/>
<stop offset="0.722" stop-color="#D41E32"/>
<stop offset="0.853" stop-color="#D61F33"/>
<stop offset="0.918" stop-color="#DE2337"/>
<stop offset="0.968" stop-color="#EB293E"/>
<stop offset="1" stop-color="#F82F44"/>
</linearGradient>
<linearGradient id="paint12_linear_109_659" x1="104.33" y1="17.7876" x2="103.843" y2="20.2435" gradientUnits="userSpaceOnUse">
<stop stop-color="#FF8A95"/>
<stop offset="0.66" stop-color="#FF495D"/>
<stop offset="1" stop-color="#FF2D44"/>
</linearGradient>
<linearGradient id="paint13_linear_109_659" x1="106.384" y1="19.972" x2="105.88" y2="21.41" gradientUnits="userSpaceOnUse">
<stop stop-color="#FF5F5F"/>
<stop offset="0.283" stop-color="#FF565A"/>
<stop offset="0.746" stop-color="#FF3D4D"/>
<stop offset="1" stop-color="#FF2D44"/>
</linearGradient>
<linearGradient id="paint14_linear_109_659" x1="106.384" y1="19.9721" x2="105.88" y2="21.41" gradientUnits="userSpaceOnUse">
<stop stop-color="#FF5F5F"/>
<stop offset="0.283" stop-color="#FF565A"/>
<stop offset="0.746" stop-color="#FF3D4D"/>
<stop offset="1" stop-color="#FF2D44"/>
</linearGradient>
<linearGradient id="paint15_linear_109_659" x1="144.118" y1="15.6684" x2="144.118" y2="32.9658" gradientUnits="userSpaceOnUse">
<stop stop-color="#FFE100"/>
<stop offset="1" stop-color="#F98900"/>
</linearGradient>
<linearGradient id="paint16_linear_109_659" x1="147.187" y1="23.0396" x2="147.187" y2="20.3803" gradientUnits="userSpaceOnUse">
<stop offset="0.005" stop-color="#414D4D"/>
<stop offset="0.206" stop-color="#3A4545"/>
<stop offset="0.522" stop-color="#272E2E"/>
<stop offset="0.914" stop-color="#080909"/>
<stop offset="1"/>
</linearGradient>
<linearGradient id="paint17_linear_109_659" x1="141.049" y1="23.0761" x2="141.049" y2="20.5705" gradientUnits="userSpaceOnUse">
<stop offset="0.005" stop-color="#414D4D"/>
<stop offset="0.206" stop-color="#3A4545"/>
<stop offset="0.522" stop-color="#272E2E"/>
<stop offset="0.914" stop-color="#080909"/>
<stop offset="1"/>
</linearGradient>
<linearGradient id="paint18_linear_109_659" x1="144.118" y1="30.2515" x2="144.118" y2="25.8131" gradientUnits="userSpaceOnUse">
<stop stop-color="#911625"/>
<stop offset="0.212" stop-color="#861422"/>
<stop offset="0.588" stop-color="#68101A"/>
<stop offset="1" stop-color="#400A10"/>
</linearGradient>
<linearGradient id="paint19_linear_109_659" x1="237.262" y1="98.2043" x2="172.189" y2="123.751" gradientUnits="userSpaceOnUse">
<stop stop-color="#4D6BDF"/>
<stop offset="1" stop-color="#99E9A5"/>
</linearGradient>
<linearGradient id="paint20_linear_109_659" x1="215.866" y1="98.2043" x2="194.551" y2="159.23" gradientUnits="userSpaceOnUse">
<stop stop-color="#4D6BDF"/>
<stop offset="0.092449" stop-color="#4D6BDF" stop-opacity="0.427983"/>
<stop offset="1" stop-color="#4D6BDF" stop-opacity="0"/>
</linearGradient>
<clipPath id="clip0_109_659">
<rect width="300" height="223.192" fill="white"/>
</clipPath>
<clipPath id="clip1_109_659">
<rect width="17.8553" height="17.8553" fill="white" transform="translate(89.9143 15.3046)"/>
</clipPath>
<clipPath id="clip2_109_659">
<rect width="17.8553" height="17.8553" fill="white" transform="translate(114.784 17.8553)"/>
</clipPath>
</defs>
</svg>
