<svg width="419" height="350" viewBox="0 0 419 350" fill="none" xmlns="http://www.w3.org/2000/svg">
<g clip-path="url(#clip0_109_534)">
<path d="M196.627 350C287.934 350 361.953 346.215 361.953 341.546C361.953 336.877 287.934 333.092 196.627 333.092C105.32 333.092 31.3008 336.877 31.3008 341.546C31.3008 346.215 105.32 350 196.627 350Z" fill="#F98900" fill-opacity="0.32"/>
<path d="M293.217 81.2292H291.339V29.7784C291.339 21.8807 288.202 14.3064 282.617 8.7219C277.033 3.13737 269.459 8.71966e-06 261.561 0H152.555C144.658 -1.49479e-05 137.083 3.13732 131.499 8.72182C125.914 14.3063 122.777 21.8806 122.777 29.7783V312.042C122.777 319.939 125.914 327.514 131.499 333.098C137.083 338.683 144.657 341.82 152.555 341.82H261.561C269.458 341.82 277.033 338.683 282.617 333.098C288.202 327.514 291.339 319.939 291.339 312.042V117.853H293.217L293.217 81.2292Z" fill="#3F3D56"/>
<path d="M285.001 29.9862V311.834C285.001 317.732 282.658 323.389 278.487 327.559C274.317 331.73 268.66 334.073 262.762 334.073H153.233C147.335 334.073 141.679 331.73 137.508 327.559C133.337 323.389 130.994 317.732 130.994 311.834V29.9862C130.994 24.088 133.337 18.4315 137.508 14.2608C141.679 10.0902 147.335 7.74712 153.233 7.74701H166.52C165.868 9.35141 165.619 11.0917 165.796 12.8147C165.974 14.5378 166.572 16.1908 167.538 17.6284C168.505 19.066 169.809 20.2441 171.338 21.0591C172.866 21.8741 174.572 22.301 176.304 22.3023H238.752C240.484 22.301 242.189 21.8741 243.718 21.0591C245.246 20.244 246.551 19.0659 247.517 17.6283C248.484 16.1908 249.082 14.5377 249.259 12.8147C249.437 11.0917 249.188 9.35141 248.535 7.74701H262.762C268.66 7.74712 274.316 10.0902 278.487 14.2608C282.658 18.4315 285.001 24.088 285.001 29.9862Z" fill="white"/>
<path d="M249.716 151.518C248.988 151.898 248.248 152.258 247.494 152.598C246.809 152.908 246.112 153.199 245.405 153.472C245.146 153.57 244.883 153.669 244.62 153.767C242.541 154.522 240.405 155.111 238.233 155.529C237.157 155.74 236.067 155.906 234.964 156.027C234.053 156.13 233.132 156.204 232.202 156.247C231.54 156.28 230.877 156.294 230.21 156.294C227.569 156.295 224.934 156.049 222.339 155.557C221.662 155.435 221 155.289 220.338 155.13C217.134 154.362 214.033 153.217 211.099 151.72C210.836 151.588 210.573 151.447 210.31 151.311C209.92 151.104 209.54 150.888 209.16 150.663C209.343 150.409 209.54 150.16 209.742 149.916C211.94 147.193 214.687 144.963 217.804 143.372C220.921 141.781 224.339 140.865 227.834 140.683C231.329 140.501 234.823 141.058 238.088 142.317C241.354 143.576 244.317 145.509 246.785 147.99C247.642 148.85 248.436 149.77 249.162 150.743C249.354 150.996 249.538 151.255 249.716 151.518Z" fill="#99E9A5"/>
<path d="M231.148 130.886C242.538 130.886 251.771 121.653 251.771 110.263C251.771 98.8729 242.538 89.6395 231.148 89.6395C219.758 89.6395 210.524 98.8729 210.524 110.263C210.524 121.653 219.758 130.886 231.148 130.886Z" fill="#2F2E41"/>
<path d="M236.633 130.915C244.072 126.849 246.805 117.523 242.739 110.084C238.673 102.646 229.347 99.9123 221.908 103.978C214.47 108.045 211.736 117.371 215.802 124.809C219.869 132.248 229.195 134.981 236.633 130.915Z" fill="#A0616A"/>
<path d="M245.399 107.792C241.892 110.21 237.728 111.496 233.468 111.479C234.988 112.533 236.718 113.245 238.539 113.565C232.875 114.78 227.021 114.813 221.344 113.662C220.082 113.46 218.865 113.041 217.745 112.426C217.187 112.114 216.7 111.688 216.317 111.176C215.935 110.664 215.664 110.078 215.523 109.454C215.146 107.299 216.825 105.341 218.57 104.021C221.242 102.032 224.323 100.661 227.59 100.008C230.856 99.3556 234.227 99.4371 237.459 100.247C239.569 100.792 241.683 101.714 243.053 103.408C244.424 105.103 244.83 107.715 243.524 109.46L245.399 107.792Z" fill="#2F2E41"/>
<path d="M230.211 71.7526C220.992 71.7512 212.026 74.764 204.678 80.3318C197.331 85.8996 192.005 93.717 189.513 102.593C187.021 111.468 187.5 120.915 190.875 129.493C194.251 138.072 200.339 145.311 208.211 150.109L208.484 150.268C208.709 150.405 208.935 150.536 209.16 150.663C209.54 150.888 209.921 151.104 210.311 151.311C210.574 151.447 210.837 151.588 211.1 151.72C214.034 153.217 217.135 154.362 220.338 155.129C221.001 155.289 221.663 155.435 222.339 155.557C224.934 156.048 227.57 156.295 230.211 156.294C230.878 156.294 231.54 156.28 232.202 156.247C233.132 156.205 234.053 156.131 234.964 156.027C236.068 155.904 237.157 155.738 238.233 155.529C240.405 155.111 242.541 154.522 244.621 153.767C244.884 153.669 245.146 153.57 245.405 153.472C246.114 153.199 246.811 152.908 247.495 152.598C248.246 152.26 248.987 151.9 249.717 151.518C257.028 147.689 263.071 141.82 267.113 134.623C267.132 134.586 267.156 134.548 267.174 134.511C269.331 130.641 270.86 126.455 271.707 122.107C272.895 115.985 272.715 109.677 271.18 103.634C269.644 97.5906 266.792 91.9614 262.827 87.1495C258.861 82.3375 253.881 78.4619 248.242 75.8001C242.604 73.1383 236.446 71.7561 230.211 71.7526ZM266.404 133.961C266.366 134.027 266.334 134.093 266.296 134.154C262.335 141.244 256.377 147.013 249.162 150.743C248.444 151.118 247.712 151.471 246.969 151.799C246.354 152.077 245.724 152.34 245.09 152.584C244.822 152.687 244.55 152.79 244.278 152.884C242.481 153.541 240.64 154.068 238.768 154.463C237.38 154.758 235.977 154.979 234.565 155.125C233.696 155.219 232.813 155.284 231.925 155.317C231.357 155.341 230.784 155.355 230.211 155.355C227.655 155.358 225.104 155.12 222.593 154.646C221.065 154.364 219.555 153.994 218.07 153.537C215.808 152.838 213.609 151.947 211.499 150.874C211.255 150.747 211.01 150.621 210.771 150.489C210.428 150.306 210.081 150.118 209.742 149.916C209.489 149.775 209.235 149.625 208.986 149.475C208.84 149.39 208.695 149.301 208.549 149.212C201.647 144.973 196.141 138.801 192.715 131.462C189.289 124.122 188.092 115.939 189.275 107.926C190.457 99.9128 193.966 92.4234 199.366 86.3865C204.766 80.3496 211.82 76.031 219.652 73.9665C227.484 71.9019 235.75 72.1823 243.425 74.7728C251.099 77.3633 257.844 82.1499 262.822 88.5388C267.801 94.9277 270.794 102.638 271.431 110.712C272.068 118.787 270.32 126.871 266.404 133.961Z" fill="#3F3D56"/>
<path d="M220.704 89.924C220.482 87.5907 217.624 86.1542 215.389 86.859C213.153 87.5638 211.686 89.8146 211.242 92.1161C211.028 93.0854 211.008 94.0873 211.183 95.0643C211.357 96.0413 211.723 96.9743 212.259 97.8097C213.389 99.4359 215.465 100.451 217.402 100.038C219.613 99.5666 221.144 97.4079 221.583 95.1903C222.021 92.9728 221.586 90.6865 221.151 88.4682L220.704 89.924Z" fill="#2F2E41"/>
<path d="M252.164 93.2574C251.942 90.924 249.084 89.4876 246.848 90.1924C244.613 90.8972 243.146 93.148 242.702 95.4495C242.488 96.4188 242.468 97.4206 242.643 98.3977C242.817 99.3747 243.183 100.308 243.719 101.143C244.849 102.769 246.925 103.784 248.862 103.371C251.073 102.9 252.604 100.741 253.043 98.5237C253.481 96.3061 253.046 94.0198 252.611 91.8015L252.164 93.2574Z" fill="#2F2E41"/>
<path d="M157.146 130.917C156.854 130.917 156.564 130.855 156.297 130.737C156.03 130.619 155.79 130.446 155.593 130.229L132.287 104.804C132.022 104.516 131.701 104.286 131.343 104.129C130.985 103.971 130.599 103.89 130.208 103.89H7.0495C5.1805 103.887 3.38865 103.144 2.06707 101.822C0.745483 100.501 0.00209841 98.709 0 96.84V52.4263C0.00209717 50.5573 0.745483 48.7654 2.06707 47.4438C3.38865 46.1223 5.1805 45.3789 7.0495 45.3768H166.61C168.479 45.3789 170.271 46.1223 171.593 47.4438C172.914 48.7654 173.658 50.5573 173.66 52.4263V96.84C173.658 98.709 172.914 100.501 171.593 101.822C170.271 103.144 168.479 103.887 166.61 103.89H162.087C161.339 103.89 160.622 104.188 160.093 104.717C159.565 105.245 159.267 105.962 159.266 106.71V128.8C159.268 129.227 159.14 129.644 158.9 129.996C158.659 130.348 158.317 130.618 157.918 130.771C157.672 130.867 157.41 130.917 157.146 130.917Z" fill="white"/>
<path d="M157.146 130.917C156.854 130.917 156.564 130.855 156.297 130.737C156.03 130.619 155.79 130.446 155.593 130.229L132.287 104.804C132.022 104.516 131.701 104.286 131.343 104.129C130.985 103.971 130.599 103.89 130.208 103.89H7.0495C5.1805 103.887 3.38865 103.144 2.06707 101.822C0.745483 100.501 0.00209841 98.709 0 96.84V52.4263C0.00209717 50.5573 0.745483 48.7654 2.06707 47.4438C3.38865 46.1223 5.1805 45.3789 7.0495 45.3768H166.61C168.479 45.3789 170.271 46.1223 171.593 47.4438C172.914 48.7654 173.658 50.5573 173.66 52.4263V96.84C173.658 98.709 172.914 100.501 171.593 101.822C170.271 103.144 168.479 103.887 166.61 103.89H162.087C161.339 103.89 160.622 104.188 160.093 104.717C159.565 105.245 159.267 105.962 159.266 106.71V128.8C159.268 129.227 159.14 129.644 158.9 129.996C158.659 130.348 158.317 130.618 157.918 130.771C157.672 130.867 157.41 130.917 157.146 130.917ZM7.0495 46.3161C5.42955 46.318 3.87647 46.9623 2.73099 48.1078C1.58551 49.2532 0.941181 50.8063 0.939352 52.4263V96.84C0.941183 98.46 1.58552 100.013 2.731 101.159C3.87647 102.304 5.42955 102.948 7.0495 102.95H130.208C130.729 102.951 131.244 103.059 131.721 103.269C132.198 103.479 132.627 103.786 132.979 104.169L156.285 129.594C156.445 129.769 156.654 129.891 156.885 129.945C157.116 129.999 157.357 129.981 157.578 129.896C157.799 129.81 157.988 129.659 158.122 129.464C158.256 129.268 158.327 129.037 158.327 128.8V106.71C158.328 105.713 158.725 104.757 159.429 104.053C160.134 103.348 161.09 102.951 162.087 102.95H166.61C168.23 102.948 169.783 102.304 170.929 101.159C172.074 100.013 172.719 98.46 172.72 96.84V52.4263C172.719 50.8063 172.074 49.2532 170.929 48.1078C169.783 46.9623 168.23 46.318 166.61 46.3161H7.0495Z" fill="#3F3D56"/>
<path d="M17.2916 64.969C20.6985 64.969 23.4602 62.2072 23.4602 58.8004C23.4602 55.3935 20.6985 52.6318 17.2916 52.6318C13.8848 52.6318 11.123 55.3935 11.123 58.8004C11.123 62.2072 13.8848 64.969 17.2916 64.969Z" fill="#6C63FF"/>
<path d="M159.414 92.9332H14.2462C13.8139 92.9337 13.3856 92.849 12.986 92.6839C12.5864 92.5188 12.2233 92.2766 11.9174 91.971C11.6115 91.6655 11.3688 91.3026 11.2032 90.9032C11.0376 90.5038 10.9524 90.0757 10.9524 89.6433C10.9524 89.2109 11.0376 88.7828 11.2032 88.3834C11.3688 87.984 11.6115 87.6211 11.9174 87.3156C12.2233 87.01 12.5864 86.7678 12.986 86.6027C13.3856 86.4376 13.8139 86.3529 14.2462 86.3534H159.414C160.286 86.3544 161.121 86.7015 161.737 87.3184C162.354 87.9352 162.7 88.7714 162.7 89.6433C162.7 90.5152 162.354 91.3514 161.737 91.9682C161.121 92.5851 160.286 92.9322 159.414 92.9332Z" fill="#99E9A5"/>
<path d="M112.121 78.9511H14.2462C13.8139 78.9516 13.3856 78.8669 12.986 78.7018C12.5864 78.5367 12.2233 78.2945 11.9174 77.9889C11.6115 77.6834 11.3688 77.3205 11.2032 76.9211C11.0376 76.5217 10.9524 76.0936 10.9524 75.6612C10.9524 75.2288 11.0376 74.8007 11.2032 74.4013C11.3688 74.0019 11.6115 73.639 11.9174 73.3335C12.2233 73.0279 12.5864 72.7857 12.986 72.6206C13.3856 72.4555 13.8139 72.3708 14.2462 72.3713H112.121C112.994 72.3713 113.831 72.7179 114.448 73.3349C115.064 73.9519 115.411 74.7887 115.411 75.6612C115.411 76.5337 115.064 77.3705 114.448 77.9875C113.831 78.6045 112.994 78.9511 112.121 78.9511Z" fill="#E6E6E6"/>
<path d="M260.701 281.537C260.303 281.384 259.961 281.114 259.72 280.762C259.479 280.41 259.351 279.993 259.353 279.566V257.476C259.352 256.728 259.055 256.011 258.526 255.483C257.998 254.954 257.281 254.656 256.533 254.656H252.009C250.14 254.653 248.349 253.91 247.027 252.589C245.705 251.267 244.962 249.475 244.96 247.606V203.192C244.962 201.323 245.705 199.531 247.027 198.21C248.349 196.888 250.14 196.145 252.009 196.143H411.57C413.439 196.145 415.231 196.888 416.553 198.21C417.874 199.531 418.618 201.323 418.62 203.192V247.606C418.618 249.475 417.874 251.267 416.553 252.589C415.231 253.91 413.439 254.653 411.57 254.656H288.412C288.021 254.656 287.634 254.738 287.277 254.895C286.919 255.052 286.598 255.282 286.333 255.57L263.027 280.995C262.83 281.212 262.59 281.385 262.323 281.503C262.055 281.621 261.766 281.683 261.474 281.683C261.209 281.683 260.947 281.633 260.701 281.537Z" fill="white"/>
<path d="M260.701 281.537C260.303 281.384 259.961 281.114 259.72 280.762C259.479 280.41 259.351 279.993 259.353 279.566V257.476C259.352 256.728 259.055 256.011 258.526 255.483C257.998 254.954 257.281 254.656 256.533 254.656H252.009C250.14 254.653 248.349 253.91 247.027 252.589C245.705 251.267 244.962 249.475 244.96 247.606V203.192C244.962 201.323 245.705 199.531 247.027 198.21C248.349 196.888 250.14 196.145 252.009 196.143H411.57C413.439 196.145 415.231 196.888 416.553 198.21C417.874 199.531 418.618 201.323 418.62 203.192V247.606C418.618 249.475 417.874 251.267 416.553 252.589C415.231 253.91 413.439 254.653 411.57 254.656H288.412C288.021 254.656 287.634 254.738 287.277 254.895C286.919 255.052 286.598 255.282 286.333 255.57L263.027 280.995C262.83 281.212 262.59 281.385 262.323 281.503C262.055 281.621 261.766 281.683 261.474 281.683C261.209 281.683 260.947 281.633 260.701 281.537ZM252.009 197.082C250.39 197.084 248.836 197.728 247.691 198.874C246.545 200.019 245.901 201.572 245.899 203.192V247.606C245.901 249.226 246.545 250.779 247.691 251.925C248.836 253.07 250.39 253.714 252.009 253.716H256.533C257.53 253.717 258.485 254.114 259.19 254.819C259.895 255.524 260.292 256.479 260.293 257.476V279.566C260.293 279.803 260.364 280.034 260.498 280.23C260.632 280.425 260.821 280.576 261.042 280.662C261.263 280.747 261.504 280.765 261.735 280.711C261.965 280.657 262.174 280.535 262.334 280.36L285.641 254.935C285.993 254.552 286.422 254.245 286.899 254.035C287.376 253.825 287.891 253.717 288.412 253.716H411.57C413.19 253.714 414.743 253.07 415.889 251.925C417.034 250.779 417.679 249.226 417.68 247.606V203.192C417.679 201.572 417.034 200.019 415.889 198.874C414.743 197.728 413.19 197.084 411.57 197.082H252.009Z" fill="#3F3D56"/>
<path d="M210.968 295.29C204.425 299.48 196.844 301.765 189.075 301.889C181.306 302.012 173.656 299.97 166.983 295.99C168.157 293.805 169.644 291.803 171.398 290.049C174.104 287.33 177.397 285.268 181.024 284.02C184.652 282.773 188.517 282.373 192.322 282.853C196.128 283.332 199.773 284.678 202.978 286.786C206.183 288.894 208.861 291.708 210.808 295.013C210.86 295.102 210.916 295.196 210.968 295.29Z" fill="#F98900"/>
<path d="M187.139 272.83C198.605 272.83 207.899 263.535 207.899 252.07C207.899 240.604 198.605 231.309 187.139 231.309C175.673 231.309 166.378 240.604 166.378 252.07C166.378 263.535 175.673 272.83 187.139 272.83Z" fill="#2F2E41"/>
<path d="M202.587 266.713C206.68 259.225 203.928 249.837 196.44 245.744C188.953 241.65 179.564 244.402 175.471 251.89C171.378 259.378 174.13 268.766 181.618 272.859C189.105 276.953 198.494 274.201 202.587 266.713Z" fill="#FFB8B8"/>
<path d="M172.793 249.583C176.324 252.016 180.515 253.311 184.803 253.294C183.273 254.355 181.532 255.071 179.699 255.394C185.4 256.617 191.293 256.65 197.008 255.491C198.278 255.288 199.504 254.867 200.631 254.247C201.193 253.933 201.683 253.505 202.068 252.989C202.453 252.474 202.726 251.883 202.868 251.256C203.248 249.086 201.557 247.115 199.8 245.787C197.111 243.784 194.009 242.404 190.721 241.747C187.432 241.09 184.039 241.172 180.786 241.987C178.662 242.536 176.534 243.464 175.155 245.17C173.775 246.876 173.366 249.505 174.681 251.262L172.793 249.583Z" fill="#2F2E41"/>
<path d="M188.409 302.364C178.242 302.36 168.417 298.692 160.736 292.03C153.054 285.368 148.033 276.161 146.591 266.096C145.15 256.032 147.386 245.785 152.889 237.235C158.391 228.686 166.792 222.407 176.55 219.55C186.308 216.694 196.768 217.451 206.013 221.683C215.258 225.916 222.666 233.339 226.88 242.592C231.094 251.845 231.83 262.307 228.954 272.059C226.078 281.812 219.782 290.2 211.222 295.685C204.414 300.051 196.496 302.369 188.409 302.364ZM188.409 218.761C180.234 218.76 172.241 221.184 165.443 225.726C158.645 230.268 153.346 236.723 150.217 244.276C147.088 251.83 146.269 260.141 147.864 268.16C149.459 276.178 153.396 283.544 159.177 289.325C164.958 295.106 172.324 299.043 180.342 300.638C188.361 302.233 196.672 301.414 204.226 298.285C211.779 295.156 218.234 289.857 222.776 283.059C227.318 276.261 229.742 268.268 229.741 260.093C229.728 249.135 225.37 238.629 217.621 230.881C209.873 223.132 199.367 218.774 188.409 218.761Z" fill="#3F3D56"/>
<path d="M264.811 215.265C268.218 215.265 270.98 212.504 270.98 209.097C270.98 205.69 268.218 202.928 264.811 202.928C261.404 202.928 258.643 205.69 258.643 209.097C258.643 212.504 261.404 215.265 264.811 215.265Z" fill="#6C63FF"/>
<path d="M406.933 243.23H261.766C261.333 243.23 260.905 243.145 260.505 242.98C260.106 242.815 259.743 242.573 259.437 242.267C259.131 241.962 258.888 241.599 258.722 241.2C258.557 240.8 258.472 240.372 258.472 239.94C258.472 239.507 258.557 239.079 258.722 238.68C258.888 238.28 259.131 237.918 259.437 237.612C259.743 237.306 260.106 237.064 260.505 236.899C260.905 236.734 261.333 236.649 261.766 236.65H406.933C407.806 236.65 408.642 236.996 409.259 237.613C409.876 238.23 410.223 239.067 410.223 239.94C410.223 240.812 409.876 241.649 409.259 242.266C408.642 242.883 407.806 243.23 406.933 243.23Z" fill="#99E9A5"/>
<path d="M359.64 229.247H261.766C261.333 229.248 260.905 229.163 260.505 228.998C260.106 228.833 259.743 228.591 259.437 228.285C259.131 227.98 258.888 227.617 258.722 227.217C258.557 226.818 258.472 226.39 258.472 225.958C258.472 225.525 258.557 225.097 258.722 224.698C258.888 224.298 259.131 223.935 259.437 223.63C259.743 223.324 260.106 223.082 260.505 222.917C260.905 222.752 261.333 222.667 261.766 222.668H359.64C360.512 222.669 361.348 223.016 361.964 223.633C362.58 224.249 362.926 225.086 362.926 225.958C362.926 226.829 362.58 227.666 361.964 228.282C361.348 228.899 360.512 229.246 359.64 229.247Z" fill="#E6E6E6"/>
<path d="M260.503 285.742C266.859 285.742 272.012 285.17 272.012 284.464C272.012 283.759 266.859 283.187 260.503 283.187C254.147 283.187 248.994 283.759 248.994 284.464C248.994 285.17 254.147 285.742 260.503 285.742Z" fill="#F2F2F2"/>
<path d="M157.644 135.445C164 135.445 169.153 134.874 169.153 134.168C169.153 133.463 164 132.891 157.644 132.891C151.287 132.891 146.135 133.463 146.135 134.168C146.135 134.874 151.287 135.445 157.644 135.445Z" fill="#F2F2F2"/>
</g>
<defs>
<clipPath id="clip0_109_534">
<rect width="418.62" height="350" fill="white"/>
</clipPath>
</defs>
</svg>
