<svg width="300" height="223" viewBox="0 0 300 223" fill="none" xmlns="http://www.w3.org/2000/svg">
<g clip-path="url(#clip0_109_609)">
<path d="M18.1022 180.893C18.4713 194.667 20.7789 208.321 24.9569 221.451C25.0495 221.756 25.1524 222.056 25.2524 222.361H50.8305C50.8037 222.088 50.7759 221.783 50.749 221.451C49.0437 201.845 58.7866 83.9383 70.5432 63.5317C69.5132 65.1871 16.119 118.595 18.1022 180.893Z" fill="#B26D3C"/>
<path d="M20.0214 221.451C20.2353 221.756 20.4577 222.061 20.6856 222.361H39.8749C39.7295 222.102 39.5609 221.797 39.3655 221.451C36.1957 215.73 26.8131 198.625 18.104 180.893C8.74824 161.837 0.15768 142.059 0.881115 134.9C0.656917 136.514 -5.8198 185.732 20.0214 221.451Z" fill="#B26D3C"/>
<path d="M102.083 152.467C102.023 152.692 101.98 152.921 101.955 153.153L83.4776 162.857L79.1872 160.155L74.2632 166.097L81.3936 171.618C81.9697 172.064 82.6749 172.311 83.4033 172.323C84.1318 172.334 84.8442 172.108 85.4337 171.68L104.644 157.724C105.472 158.069 106.386 158.153 107.263 157.966C108.14 157.778 108.94 157.328 109.555 156.676C110.171 156.023 110.573 155.198 110.708 154.311C110.843 153.424 110.705 152.518 110.312 151.711C109.919 150.905 109.29 150.237 108.509 149.796C107.727 149.356 106.83 149.164 105.937 149.246C105.043 149.328 104.196 149.681 103.508 150.256C102.819 150.831 102.323 151.602 102.083 152.467Z" fill="#9E616A"/>
<path d="M124.361 218.221L128.066 215.838L120.639 200.415L115.171 203.931L124.361 218.221Z" fill="#9E616A"/>
<path d="M122.638 217.619L129.934 212.927C131.167 212.134 132.665 211.863 134.098 212.174C135.53 212.486 136.781 213.353 137.574 214.586L137.671 214.737L125.725 222.42L122.638 217.619Z" fill="#2F2E41"/>
<path d="M70.9831 191.728L99.4221 173.52C99.4221 173.52 104.647 173.015 107.783 179.196L126.724 206.402L118.643 211.87L97.6257 190.047L83.2035 204.31C83.2035 204.31 104.452 200.826 103.734 214.838C103.163 225.958 74.0814 222.144 62.1009 220.095C59.8254 219.724 57.6595 218.856 55.7569 217.554C53.8544 216.251 52.2618 214.546 51.0923 212.559C49.8074 210.331 49.1167 207.8 50.1959 205.408C53.0738 199.029 70.9831 191.728 70.9831 191.728Z" fill="#2F2E41"/>
<path d="M56.885 206.945L48.6895 205.286L51.0249 165.062L60.455 153.511L66.0734 152.516C67.7482 152.213 69.4761 152.549 70.9145 153.459C72.3529 154.37 73.3969 155.787 73.8394 157.431L76.3158 166.478C80.5177 173.592 74.6314 181.841 74.0885 182.574L74.3944 195.05L56.885 206.945Z" fill="#99E9A5"/>
<path d="M64.5161 155.087L65.0361 153.247C65.0361 153.247 70.6792 149.088 79.3021 159.867L75.1703 167.232L66.1881 166.873L64.5161 155.087Z" fill="#99E9A5"/>
<path d="M77.4972 140.772C79.0958 147.325 72.7942 147.812 65.3191 149.636C57.8439 151.459 52.0259 153.929 50.4273 147.375C48.8286 140.822 48.955 128.483 59.5299 125.903C70.4691 123.235 75.8986 134.218 77.4972 140.772Z" fill="#2F2E41"/>
<path d="M63.0496 149.903C68.2272 149.903 72.4244 145.706 72.4244 140.528C72.4244 135.351 68.2272 131.153 63.0496 131.153C57.872 131.153 53.6748 135.351 53.6748 140.528C53.6748 145.706 57.872 149.903 63.0496 149.903Z" fill="#9E616A"/>
<path d="M52.3086 142.202L55.9109 141.323L56.4146 136.485L57.8179 140.858L59.5396 140.438L59.8335 137.616L60.6521 140.166L73.4454 137.046C72.8216 134.489 71.2076 132.284 68.9585 130.917C66.7093 129.55 64.0092 129.132 61.4522 129.756L59.5981 130.208C58.3319 130.517 57.1391 131.072 56.0875 131.842C55.036 132.612 54.1463 133.582 53.4694 134.695C52.7926 135.809 52.3416 137.045 52.1425 138.333C51.9433 139.621 51.9997 140.936 52.3086 142.202Z" fill="#2F2E41"/>
<path d="M79.1051 186.887C78.8798 186.946 78.6595 187.022 78.4462 187.116L60.8583 175.879L61.0778 170.814L53.4764 169.483L52.2161 178.413C52.1143 179.134 52.2493 179.869 52.6007 180.507C52.9522 181.146 53.5012 181.652 54.1652 181.952L75.8088 191.717C75.9202 192.607 76.3 193.442 76.8976 194.112C77.4952 194.781 78.2823 195.252 79.1543 195.463C80.0263 195.673 80.9418 195.614 81.779 195.291C82.6162 194.969 83.3355 194.4 83.8411 193.659C84.3468 192.918 84.6149 192.04 84.6098 191.143C84.6046 190.246 84.3265 189.372 83.8123 188.637C83.2982 187.902 82.5724 187.34 81.7316 187.028C80.8907 186.715 79.9746 186.666 79.1051 186.887Z" fill="#9E616A"/>
<path d="M61.8775 155.347L60.5521 153.677C60.5521 153.677 55.2299 151.962 52.3556 159.148C49.4812 166.334 52.1759 173.34 52.1759 173.34L64.751 174.418L65.6493 162.741L61.8775 155.347Z" fill="#99E9A5"/>
<path d="M201.802 50.0156H300V82.2522H296.28V90.6831L287.849 82.2522H201.802V50.0156Z" fill="#CCCCCC"/>
<path d="M297.272 53.1546H204.53V78.9439H297.272V53.1546Z" fill="white"/>
<path fill-rule="evenodd" clip-rule="evenodd" d="M292.792 71.4947C292.913 71.6096 292.917 71.8005 292.802 71.9207L290.365 74.4741C290.338 74.5027 290.305 74.5257 290.269 74.5417C290.233 74.5577 290.194 74.5664 290.154 74.5673C290.114 74.5682 290.075 74.5613 290.038 74.547C290.001 74.5327 289.967 74.5113 289.939 74.4839C289.91 74.4566 289.887 74.4239 289.871 74.3877C289.855 74.3514 289.847 74.3124 289.846 74.2728C289.845 74.2333 289.852 74.1939 289.866 74.157C289.88 74.1201 289.902 74.0863 289.929 74.0577L292.366 71.5047C292.421 71.4469 292.497 71.4134 292.577 71.4115C292.657 71.4096 292.734 71.4396 292.792 71.4947H292.792ZM286.749 74.4423C286.807 74.3872 286.884 74.3573 286.964 74.3592C287.044 74.361 287.12 74.3946 287.175 74.4524L288.364 75.6975L288.557 75.4945C288.612 75.4367 288.688 75.4032 288.768 75.4013C288.848 75.3995 288.926 75.4295 288.984 75.4847C289.041 75.5399 289.075 75.6158 289.077 75.6958C289.079 75.7757 289.049 75.8531 288.993 75.9109L288.582 76.3422C288.554 76.3717 288.52 76.3951 288.482 76.4112C288.445 76.4272 288.405 76.4355 288.364 76.4355C288.323 76.4355 288.283 76.4272 288.245 76.4112C288.208 76.3951 288.174 76.3717 288.146 76.3422L286.739 74.8684C286.684 74.8105 286.654 74.7331 286.656 74.6533C286.658 74.5734 286.691 74.4975 286.749 74.4423Z" fill="#414D4D"/>
<path fill-rule="evenodd" clip-rule="evenodd" d="M294.802 71.4947C294.922 71.6096 294.926 71.8005 294.811 71.9207L290.591 76.3418C290.563 76.3713 290.529 76.3947 290.492 76.4108C290.454 76.4268 290.414 76.4351 290.373 76.4351C290.332 76.4351 290.292 76.4268 290.255 76.4108C290.217 76.3947 290.183 76.3713 290.155 76.3418L288.748 74.8684C288.721 74.8397 288.7 74.806 288.685 74.7691C288.671 74.7321 288.664 74.6928 288.665 74.6532C288.666 74.6136 288.675 74.5746 288.691 74.5384C288.707 74.5022 288.73 74.4695 288.758 74.4421C288.787 74.4148 288.821 74.3934 288.858 74.379C288.895 74.3647 288.934 74.3579 288.973 74.3588C289.053 74.3606 289.129 74.3941 289.185 74.452L290.373 75.6975L294.375 71.5047C294.43 71.4469 294.506 71.4134 294.586 71.4115C294.666 71.4096 294.743 71.4396 294.801 71.4947H294.802Z" fill="#414D4D"/>
<path d="M253.349 61.0048H211.723V61.7225H253.349V61.0048Z" fill="#6C63FF"/>
<path d="M283.493 65.311H211.723V66.7464H283.493V65.311Z" fill="#99E9A5"/>
<path d="M283.493 70.335H211.723V71.7704H283.493V70.335Z" fill="#6C63FF"/>
<path d="M241.308 0H143.11V32.2366H146.83V40.668L155.261 32.2366H241.308V0Z" fill="#CCCCCC"/>
<path d="M238.58 3.13928H145.838V28.9286H238.58V3.13928Z" fill="white"/>
<g clip-path="url(#clip1_109_609)">
<path fill-rule="evenodd" clip-rule="evenodd" d="M233.941 19.82C234.061 19.935 234.065 20.1259 233.95 20.246L231.514 22.7994C231.486 22.828 231.453 22.851 231.417 22.867C231.381 22.883 231.342 22.8917 231.302 22.8926C231.263 22.8935 231.223 22.8866 231.187 22.8723C231.15 22.858 231.116 22.8366 231.087 22.8092C231.059 22.7819 231.036 22.7492 231.02 22.713C231.004 22.6768 230.995 22.6377 230.994 22.5982C230.993 22.5586 231 22.5192 231.014 22.4823C231.029 22.4454 231.05 22.4116 231.077 22.383L233.514 19.8301C233.569 19.7723 233.645 19.7387 233.725 19.7368C233.805 19.735 233.882 19.7649 233.94 19.82H233.941ZM227.897 22.7676C227.955 22.7125 228.033 22.6826 228.113 22.6845C228.192 22.6864 228.268 22.7199 228.324 22.7777L229.512 24.0228L229.706 23.8199C229.761 23.762 229.837 23.7285 229.917 23.7267C229.997 23.7248 230.074 23.7548 230.132 23.81C230.19 23.8652 230.223 23.9411 230.225 24.0211C230.227 24.101 230.197 24.1784 230.142 24.2362L229.73 24.6675C229.702 24.697 229.668 24.7204 229.631 24.7365C229.593 24.7525 229.553 24.7608 229.512 24.7608C229.471 24.7608 229.431 24.7525 229.394 24.7365C229.356 24.7204 229.322 24.697 229.294 24.6675L227.887 23.1937C227.832 23.1358 227.802 23.0585 227.804 22.9786C227.806 22.8987 227.84 22.8228 227.897 22.7676Z" fill="#39B64C"/>
<path fill-rule="evenodd" clip-rule="evenodd" d="M235.95 19.82C236.071 19.935 236.075 20.1259 235.96 20.246L231.74 24.6671C231.712 24.6966 231.678 24.72 231.64 24.7361C231.603 24.7521 231.562 24.7604 231.522 24.7604C231.481 24.7604 231.441 24.7521 231.403 24.7361C231.366 24.72 231.332 24.6966 231.304 24.6671L229.897 23.1937C229.87 23.165 229.848 23.1313 229.834 23.0944C229.82 23.0575 229.813 23.0181 229.814 22.9785C229.814 22.9389 229.823 22.8999 229.839 22.8637C229.855 22.8275 229.878 22.7948 229.907 22.7674C229.935 22.7401 229.969 22.7187 230.006 22.7044C230.043 22.6901 230.082 22.6832 230.122 22.6841C230.202 22.6859 230.278 22.7195 230.333 22.7773L231.522 24.0228L235.524 19.8301C235.579 19.7723 235.655 19.7387 235.735 19.7368C235.815 19.735 235.892 19.7649 235.95 19.82H235.95Z" fill="#39B64C"/>
</g>
<path d="M193.062 10.7656H154.306V12.201H193.062V10.7656Z" fill="#6C63FF"/>
<path d="M222.488 15.7895H154.306V17.2249H222.488V15.7895Z" fill="#99E9A5"/>
<path d="M222.488 20.0957H154.306V21.5311H222.488V20.0957Z" fill="#6C63FF"/>
<path d="M119.74 145.298H119.566V140.536C119.566 140.174 119.495 139.816 119.356 139.481C119.218 139.147 119.015 138.843 118.759 138.587C118.503 138.331 118.199 138.128 117.864 137.989C117.53 137.851 117.172 137.78 116.81 137.78H106.72C106.358 137.78 106 137.851 105.665 137.989C105.331 138.128 105.027 138.331 104.771 138.587C104.515 138.843 104.312 139.147 104.174 139.481C104.035 139.816 103.964 140.174 103.964 140.536V166.662C103.964 167.024 104.035 167.383 104.174 167.717C104.312 168.051 104.515 168.355 104.771 168.611C105.027 168.867 105.331 169.07 105.665 169.209C106 169.347 106.358 169.418 106.72 169.418H116.81C117.172 169.418 117.53 169.347 117.864 169.209C118.199 169.07 118.503 168.867 118.759 168.611C119.015 168.355 119.218 168.051 119.356 167.717C119.495 167.383 119.566 167.024 119.566 166.662V148.688H119.74V145.298Z" fill="#3F3D56"/>
<path d="M116.921 138.497H115.604C115.665 138.645 115.688 138.806 115.671 138.966C115.655 139.125 115.6 139.278 115.51 139.412C115.421 139.545 115.3 139.654 115.158 139.729C115.017 139.804 114.859 139.844 114.699 139.844H108.918C108.758 139.844 108.6 139.804 108.459 139.729C108.317 139.654 108.196 139.545 108.107 139.412C108.017 139.278 107.962 139.125 107.946 138.966C107.929 138.806 107.952 138.645 108.013 138.497H106.783C106.237 138.497 105.713 138.714 105.327 139.1C104.941 139.486 104.725 140.009 104.725 140.555V166.643C104.725 166.913 104.778 167.181 104.881 167.431C104.985 167.68 105.136 167.907 105.327 168.098C105.519 168.29 105.746 168.441 105.995 168.545C106.245 168.648 106.513 168.701 106.783 168.701H116.921C117.191 168.701 117.459 168.648 117.709 168.545C117.959 168.441 118.185 168.29 118.377 168.098C118.568 167.907 118.719 167.68 118.823 167.431C118.926 167.181 118.979 166.913 118.979 166.643V140.555C118.979 140.285 118.926 140.017 118.823 139.767C118.719 139.518 118.568 139.291 118.377 139.1C118.185 138.908 117.959 138.757 117.709 138.653C117.459 138.55 117.191 138.497 116.921 138.497Z" fill="white"/>
<path d="M224.641 99.7607H110.526V132.188H114.849V140.67L124.647 132.188H224.641V99.7607Z" fill="#CCCCCC"/>
<path d="M222.488 101.914H112.679V129.904H222.488V101.914Z" fill="white"/>
<path d="M171.531 108.373H122.01V110.526H171.531V108.373Z" fill="#6C63FF"/>
<path d="M208.134 114.115H122.01V116.268H208.134V114.115Z" fill="#99E9A5"/>
<path d="M208.134 119.856H122.01V122.01H208.134V119.856Z" fill="#6C63FF"/>
<path d="M164.146 222.744H18.3295C18.228 222.744 18.1306 222.703 18.0589 222.632C17.9871 222.56 17.9468 222.462 17.9468 222.361C17.9468 222.259 17.9871 222.162 18.0589 222.09C18.1306 222.019 18.228 221.978 18.3295 221.978H164.146C164.248 221.978 164.345 222.019 164.417 222.09C164.489 222.162 164.529 222.259 164.529 222.361C164.529 222.462 164.489 222.56 164.417 222.632C164.345 222.703 164.248 222.744 164.146 222.744Z" fill="#3F3D56"/>
</g>
<defs>
<clipPath id="clip0_109_609">
<rect width="300" height="222.744" fill="white"/>
</clipPath>
<clipPath id="clip1_109_609">
<rect width="10.0478" height="10.0478" fill="white" transform="translate(226.794 17.2249)"/>
</clipPath>
</defs>
</svg>
